<?xml version="1.0" standalone="no"?>
<!DOCTYPE svg PUBLIC "-//W3C//DTD SVG 20010904//EN"
 "http://www.w3.org/TR/2001/REC-SVG-20010904/DTD/svg10.dtd">
<svg version="1.0" xmlns="http://www.w3.org/2000/svg"
 width="850.000000pt" height="850.000000pt" viewBox="0 0 850.000000 850.000000"
 preserveAspectRatio="xMidYMid meet">
<metadata>
Created by potrace 1.11, written by Peter Selinger 2001-2013
</metadata>
<g transform="translate(0.000000,850.000000) scale(0.100000,-0.100000)"
fill="#000000" stroke="none">
<path d="M3950 8490 c-819 -67 -1540 -330 -2195 -801 -343 -246 -704 -608
-951 -954 -317 -443 -546 -933 -675 -1446 -88 -352 -124 -649 -124 -1039 0
-301 11 -444 55 -705 99 -593 319 -1149 653 -1650 970 -1454 2722 -2166 4433
-1800 1729 371 3057 1791 3309 3540 124 862 -14 1732 -397 2500 -219 440 -474
791 -824 1137 -343 337 -665 568 -1093 783 -449 224 -926 364 -1437 421 -164
18 -605 26 -754 14z m798 -981 c17 -6 33 -20 36 -32 9 -33 -13 -372 -30 -456
-8 -41 -22 -83 -31 -93 -49 -55 -119 21 -178 192 -13 36 -25 58 -28 50 -2 -8
-14 -55 -26 -103 -27 -113 -47 -156 -77 -163 -34 -9 -74 20 -74 52 0 14 -9 71
-19 127 -19 100 -51 342 -51 385 0 15 6 22 19 22 11 0 21 4 23 9 2 5 13 5 25
0 15 -5 23 -19 27 -46 27 -191 52 -333 59 -333 4 0 7 12 7 26 0 14 6 52 14 83
8 31 16 70 17 86 4 41 17 55 49 55 45 0 64 -33 143 -244 l14 -40 12 65 c7 35
15 133 18 217 3 83 9 152 13 152 4 0 21 -5 38 -11z m-524 -30 c17 -14 26 -30
26 -50 l0 -29 -116 0 c-116 0 -116 0 -110 -22 3 -13 6 -48 6 -78 l0 -55 91 4
c75 2 93 0 110 -15 44 -40 10 -70 -99 -83 -46 -6 -87 -13 -93 -16 -5 -4 -9
-36 -9 -71 l0 -66 101 4 c88 3 103 1 113 -15 14 -22 0 -47 -39 -66 -15 -7 -75
-17 -134 -21 -154 -10 -142 -33 -144 299 -2 295 -2 297 53 287 14 -3 32 -1 40
5 8 5 52 9 96 9 67 0 86 -4 108 -21z m-398 -24 c47 -28 68 -59 79 -116 8 -42
-25 -131 -60 -165 -26 -24 -86 -54 -109 -54 -13 0 -16 -13 -17 -67 -1 -38 -1
-83 0 -101 4 -46 -23 -85 -52 -76 -45 14 -47 21 -58 293 -7 169 -7 267 -1 278
27 47 143 52 218 8z m-1563 -263 c18 -20 89 -175 146 -322 21 -52 42 -104 46
-115 4 -11 9 -24 11 -30 1 -5 7 -23 13 -40 64 -188 65 -242 7 -273 -44 -23
-157 42 -274 158 -50 50 -93 90 -96 90 -2 0 0 -15 5 -32 5 -18 9 -34 9 -35 0
-2 5 -3 12 -3 9 0 9 3 0 12 -21 21 -13 32 9 12 19 -17 19 -19 3 -31 -15 -11
-15 -18 -1 -95 29 -150 31 -193 11 -226 -19 -33 -65 -47 -96 -31 -10 6 -52 59
-94 119 -41 60 -82 114 -91 118 -8 5 -14 12 -14 16 2 10 -28 64 -40 72 -8 4
-9 -1 -4 -17 4 -13 13 -27 20 -31 7 -4 16 -19 19 -33 4 -14 10 -24 15 -21 4 3
18 -9 31 -27 12 -18 17 -26 9 -19 -18 17 -26 15 -32 -8 -4 -17 -14 -20 -60
-20 -37 0 -57 -4 -60 -14 -3 -7 -20 -24 -38 -37 -18 -12 -30 -19 -27 -13 3 5
-10 16 -28 25 -19 9 -34 13 -34 9 0 -4 7 -10 15 -14 22 -8 18 -34 -5 -41 -11
-3 -20 -11 -20 -17 0 -5 -7 -8 -15 -4 -9 3 -15 0 -15 -9 0 -8 8 -16 18 -16 16
-1 16 -2 -1 -6 -13 -3 -16 -11 -13 -26 3 -12 3 -16 0 -9 -3 6 -10 9 -16 6 -6
-4 -9 -1 -6 7 3 8 -4 26 -14 42 -20 28 -21 57 -3 59 6 1 16 8 23 15 8 7 18 11
23 8 5 -4 9 -2 9 4 0 14 55 42 65 33 5 -4 5 -2 2 4 -9 15 19 38 34 28 7 -4 9
-3 5 4 -3 6 2 13 12 16 24 8 43 61 32 91 -12 33 -79 53 -116 36 -36 -16 -23
-26 15 -13 44 16 87 -1 94 -36 7 -35 -41 -82 -152 -147 -70 -41 -80 -51 -75
-69 10 -31 73 -156 79 -156 10 0 106 51 171 91 63 38 66 39 94 24 75 -39 12
-124 -155 -213 -55 -29 -108 -58 -117 -64 -38 -27 -66 0 -134 127 -35 66 -73
141 -85 168 -12 26 -25 47 -30 47 -13 0 -11 -18 3 -22 6 -2 12 -24 12 -50 1
-25 4 -44 9 -41 4 2 7 -4 7 -15 0 -10 -7 -19 -15 -19 -8 0 -15 4 -15 8 0 4
-17 9 -37 11 -25 2 -37 8 -35 16 1 8 -2 11 -8 7 -16 -10 -12 16 5 35 11 12 16
40 17 91 1 41 3 67 6 59 3 -8 9 -19 14 -25 5 -5 15 -19 24 -30 8 -11 4 3 -9
30 -13 28 -45 93 -71 146 -25 53 -48 109 -51 125 -6 35 13 62 52 73 17 5 27
14 27 24 -1 9 3 14 8 11 5 -3 26 5 46 19 20 13 68 38 105 54 60 26 74 29 119
22 55 -9 68 -20 68 -60 0 -17 -7 -29 -22 -36 -30 -13 -242 -116 -246 -119 -3
-2 84 -172 93 -182 4 -4 77 29 116 54 38 24 51 44 27 44 -6 0 -8 -3 -5 -6 8
-8 -78 -64 -96 -64 -7 0 -18 -5 -24 -11 -16 -16 -59 67 -44 85 14 17 1 29 -16
15 -8 -8 -13 -8 -13 -1 0 6 -3 18 -7 28 -5 12 -3 15 6 9 10 -5 11 -2 7 12 -5
15 0 23 20 32 15 6 29 10 31 7 2 -2 -5 -7 -16 -11 -22 -7 -28 -39 -10 -51 7
-4 9 0 5 14 -6 18 -3 20 39 19 30 -2 45 2 45 11 0 6 6 12 13 12 8 0 7 4 -3 11
-11 7 -6 8 20 3 31 -6 33 -5 21 10 -8 9 -9 16 -3 16 6 0 13 -4 16 -8 9 -14 84
-13 98 2 10 11 16 9 31 -11 10 -13 22 -21 27 -18 4 3 21 -15 37 -40 15 -25 32
-45 36 -45 5 0 -9 26 -31 58 -88 129 -150 228 -157 250 -5 19 -2 25 14 29 12
3 21 12 21 19 0 9 12 14 35 14 33 0 38 -5 84 -77 84 -133 142 -213 152 -213 5
0 1 10 -10 22 -11 11 -18 26 -14 31 3 6 1 7 -4 4 -6 -4 -17 7 -24 26 -7 17
-14 35 -17 40 -2 4 3 5 11 1 8 -3 22 2 31 11 12 12 16 13 17 3 1 -7 5 -2 9 12
7 20 8 21 9 5 0 -11 -6 -31 -15 -45 l-15 -25 7 25 c6 24 6 24 -12 5 -13 -13
-15 -20 -6 -23 7 -2 9 -9 5 -15 -3 -7 6 -1 22 13 19 17 29 21 32 13 3 -7 9
-13 14 -13 5 0 6 7 0 18 -23 46 -33 93 -21 107 19 23 130 41 127 20 -1 -5 4
-9 10 -7 7 1 12 -1 10 -6 -4 -12 151 -154 164 -150 7 2 -12 23 -41 46 -29 23
-48 42 -42 42 6 0 13 -4 17 -9 3 -6 14 -8 25 -6 12 2 18 0 15 -5 -3 -5 1 -12
8 -17 8 -4 17 -15 21 -23 3 -8 4 1 1 20 -4 33 -4 34 10 16 18 -23 19 -33 5
-41 -7 -4 -1 -17 15 -32 14 -14 23 -28 20 -31 -3 -3 -13 5 -24 17 -11 12 -22
18 -25 13 -6 -10 72 -87 80 -80 8 8 -78 258 -87 253 -5 -4 -6 0 -3 8 3 8 -11
50 -31 93 -20 44 -48 103 -62 132 -32 70 -26 78 63 91 6 0 18 -7 27 -17z
m3663 -236 c60 -40 109 -101 124 -154 10 -37 0 -104 -21 -146 -20 -39 -113
-126 -134 -126 -12 0 -26 -5 -32 -11 -6 -6 -46 -14 -88 -18 l-77 -6 -32 -85
c-18 -47 -38 -106 -45 -132 -17 -58 -49 -80 -89 -57 -57 32 -56 39 64 419 18
58 43 143 55 190 12 47 26 89 30 95 5 5 9 17 9 27 0 10 13 26 30 36 46 29 136
14 206 -32z m-3786 -86 c-9 -5 -9 -9 -1 -14 6 -4 15 -5 19 -2 4 2 8 -4 8 -14
0 -19 -1 -19 -21 0 -24 23 -29 51 -7 43 10 -4 11 -8 2 -13z m4071 -6 c7 -9 21
-13 32 -10 43 11 227 -51 269 -91 49 -47 46 -113 -6 -113 -11 0 -73 19 -136
41 -63 22 -121 41 -129 42 -15 2 -61 -129 -64 -182 -2 -25 24 -37 157 -72 81
-21 125 -79 86 -114 -16 -15 -30 -17 -82 -12 -35 4 -96 15 -137 24 -71 17 -74
17 -87 -2 -14 -18 -54 -140 -54 -162 0 -6 46 -23 103 -37 56 -15 113 -30 127
-34 14 -4 29 -19 35 -36 8 -25 6 -31 -18 -52 -37 -32 -97 -31 -207 2 -47 14
-104 30 -126 36 -23 5 -50 18 -59 28 -21 24 -22 22 72 325 81 260 129 394 150
417 20 22 56 23 74 2z m-4331 -58 c0 -2 -7 -7 -16 -10 -8 -3 -12 -2 -9 4 6 10
25 14 25 6z m-200 -66 c0 -5 -5 -10 -11 -10 -5 0 -7 5 -4 10 3 6 8 10 11 10 2
0 4 -4 4 -10z m28 -15 c-3 -3 -9 2 -12 12 -6 14 -5 15 5 6 7 -7 10 -15 7 -18z
m4941 4 c7 11 13 9 30 -8 25 -25 26 -42 6 -124 -8 -34 -23 -118 -35 -187 -11
-69 -25 -149 -31 -178 -6 -30 -9 -55 -7 -58 3 -2 15 15 28 39 13 23 37 62 54
87 42 61 51 77 77 133 25 51 41 57 87 33 50 -26 60 -73 63 -304 2 -119 10
-156 24 -111 4 12 19 43 34 68 42 72 112 240 167 399 21 60 37 65 82 27 28
-24 29 -27 20 -67 -21 -97 -163 -433 -240 -571 -55 -97 -82 -122 -125 -113
-57 13 -90 123 -94 314 -2 67 -6 122 -10 122 -4 0 -15 -17 -26 -37 -35 -71
-165 -252 -198 -275 -37 -27 -106 10 -107 58 -1 51 33 254 77 459 14 66 32
149 39 185 7 36 19 77 26 92 11 23 15 25 32 15 15 -10 20 -9 27 2z m-4905 -55
c3 -8 2 -12 -4 -9 -6 3 -10 10 -10 16 0 14 7 11 14 -7z m-229 -4 c3 -5 2 -10
-4 -10 -5 0 -13 5 -16 10 -3 6 -2 10 4 10 5 0 13 -4 16 -10z m-292 -92 c2 -7
10 -24 19 -37 10 -13 15 -28 12 -32 -3 -5 3 -20 12 -34 25 -38 33 -205 10
-224 -18 -15 -22 -47 -6 -53 14 -4 21 -48 8 -48 -5 0 -8 7 -4 15 3 8 1 15 -4
15 -6 0 -10 -4 -10 -8 0 -5 -9 -19 -20 -32 -26 -30 -26 -13 0 20 22 28 25 40
10 40 -5 0 -10 -5 -10 -11 0 -7 -9 -20 -20 -29 -12 -10 -20 -22 -19 -26 1 -5
1 -16 0 -24 -1 -13 -3 -13 -10 -1 -8 12 -12 12 -24 2 -13 -11 -11 -22 19 -89
19 -42 48 -102 63 -132 23 -45 27 -60 19 -82 -5 -15 -18 -30 -29 -33 -24 -8
-74 2 -87 18 -6 7 -54 98 -108 202 -53 105 -121 235 -151 289 -29 54 -53 102
-53 106 0 4 -7 13 -15 20 -36 29 25 117 105 152 57 25 153 34 208 19 23 -7 58
-26 77 -42 44 -39 45 -31 3 18 -18 20 -27 34 -20 29 7 -4 12 -2 12 5 0 16 11
5 13 -13z m1012 -68 c-3 -6 -15 -10 -26 -10 -11 0 -23 -10 -28 -22 -7 -19 -10
-14 -21 30 -10 42 -10 55 0 67 11 13 17 10 47 -20 19 -19 31 -40 28 -45z
m2048 -17 c-4 -10 -15 -33 -26 -50 -10 -18 -16 -33 -13 -33 3 0 13 12 21 28 9
15 14 20 11 11 -2 -10 -10 -37 -17 -60 -17 -59 -142 -208 -176 -209 -6 0 -13
-4 -15 -8 -1 -5 -32 -31 -67 -57 -82 -63 -179 -185 -241 -307 -65 -126 -58
-134 50 -53 49 37 145 95 157 95 3 0 2 -46 -2 -102 -6 -92 4 -237 21 -294 5
-20 1 -21 -73 -26 -92 -7 -272 -63 -346 -108 -26 -17 -46 -26 -43 -21 13 20
75 112 117 171 25 36 49 74 51 85 3 11 9 29 14 40 8 20 -83 -53 -300 -241 -66
-58 -80 -66 -90 -53 -6 8 -47 59 -90 113 l-80 98 3 111 c1 62 7 116 12 121 6
6 9 3 9 -9 0 -10 2 -16 5 -13 3 3 1 23 -3 44 l-9 39 -11 -40 c-7 -22 -12 -84
-12 -137 0 -54 -3 -98 -7 -98 -5 0 -17 13 -27 27 -29 40 -26 156 6 250 72 204
234 306 571 359 230 36 302 64 436 174 43 36 96 89 117 118 38 52 59 68 47 35z
m-2333 -137 c0 -8 -8 -20 -17 -27 -16 -13 -17 -12 -4 3 7 10 11 25 7 33 -3 9
-2 13 4 10 6 -3 10 -12 10 -19z m-97 -43 c-7 -2 -19 -2 -25 0 -7 3 -2 5 12 5
14 0 19 -2 13 -5z m-6 -29 c-3 -3 -12 -4 -19 -1 -8 3 -5 6 6 6 11 1 17 -2 13
-5z m-436 -107 c-9 -9 -11 -8 -6 4 4 10 2 20 -4 24 -6 3 -11 11 -11 18 0 6 7
1 16 -12 13 -17 14 -25 5 -34z m314 33 c-3 -5 -12 -10 -18 -10 -7 0 -6 4 3 10
19 12 23 12 15 0z m2539 -15 c12 -8 37 -35 54 -59 l31 -43 -104 -294 c-133
-373 -229 -641 -409 -1148 l-144 -404 -43 -23 c-29 -15 -54 -21 -71 -18 -26 5
-28 3 -28 -25 0 -19 5 -31 14 -31 10 0 15 -25 19 -97 l6 -97 -203 -571 -203
-570 -49 3 c-65 5 -149 26 -215 56 -127 57 -365 229 -374 270 -2 11 -7 42 -10
68 -9 68 -40 108 -115 145 -74 37 -88 62 -89 153 0 70 12 104 82 218 31 51 63
118 72 150 9 32 20 138 25 247 27 518 45 613 150 779 23 36 67 88 98 117 50
45 57 49 64 33 4 -11 25 -68 48 -129 59 -159 100 -195 225 -195 120 0 253 73
324 179 77 114 77 168 0 261 l-49 59 52 36 c29 19 56 35 61 35 4 0 -2 -18 -13
-40 -11 -22 -17 -40 -12 -40 4 0 35 16 68 36 32 20 86 49 119 64 80 37 250 80
312 80 48 0 52 -2 77 -40 14 -22 28 -40 30 -40 2 0 -11 37 -28 83 -30 80 -30
86 -31 262 0 164 2 186 24 250 32 95 66 159 117 227 56 72 75 81 118 53z
m-1670 -37 c34 -42 131 -165 208 -265 20 -26 79 -102 130 -167 51 -66 124
-160 163 -210 38 -50 131 -167 207 -261 157 -193 160 -201 109 -290 -58 -101
-157 -173 -274 -197 -68 -14 -139 -4 -164 25 -49 53 -184 461 -337 1012 -19
72 -49 177 -66 234 -30 105 -38 161 -21 161 5 0 26 -19 45 -42z m-1332 -40
c-7 -7 -12 -8 -12 -2 0 14 12 26 19 19 2 -3 -1 -11 -7 -17z m1331 -290 c10
-35 31 -115 48 -178 17 -63 62 -212 98 -332 l67 -216 -52 -41 -53 -41 -16 22
c-100 139 -189 335 -213 472 -15 81 -15 98 0 202 30 200 84 251 121 112z
m2427 -113 c99 -34 151 -66 216 -135 72 -75 88 -100 163 -245 58 -115 61 -125
61 -190 l-1 -70 -26 50 c-14 28 -38 79 -53 115 -47 113 -93 173 -206 269 -86
73 -122 96 -185 121 -43 16 -83 30 -88 30 -18 0 -21 17 -8 49 14 38 29 39 127
6z m2173 -388 c36 -16 103 -85 117 -123 21 -54 -3 -119 -62 -166 -48 -39 -123
-62 -172 -53 l-32 7 -42 -90 c-46 -99 -61 -117 -91 -107 -33 10 -36 49 -11
108 42 95 131 311 152 367 12 30 26 58 32 62 18 12 74 9 109 -5z m285 -128
c101 -33 160 -65 177 -99 20 -39 19 -49 -8 -55 -16 -4 -52 7 -111 35 -52 25
-92 38 -97 33 -16 -16 -59 -137 -52 -144 5 -3 31 -14 58 -24 64 -23 115 -61
115 -84 0 -36 -38 -35 -158 5 -23 8 -49 14 -57 14 -14 0 -65 -97 -65 -124 0
-8 37 -27 85 -45 93 -35 116 -58 86 -85 -9 -9 -27 -16 -39 -16 -25 0 -102 25
-156 51 -22 11 -45 19 -52 19 -7 0 -19 9 -27 21 -14 19 -12 27 19 94 19 41 34
79 34 85 0 7 11 33 24 59 13 25 36 75 50 111 46 111 80 170 98 170 5 0 39 -10
76 -21z m-2729 -374 c114 -292 164 -553 165 -875 1 -166 -8 -210 -71 -350 -60
-132 -93 -240 -93 -305 0 -69 27 -198 59 -280 74 -193 161 -382 341 -740 200
-399 252 -492 372 -662 32 -45 58 -84 58 -87 0 -3 -15 -6 -34 -6 -24 0 -38 7
-49 23 l-16 22 6 -22 c5 -22 4 -23 -68 -19 -41 2 -184 4 -318 5 -227 1 -243 2
-236 19 4 9 17 55 30 102 23 85 36 136 28 112 -3 -6 -9 -12 -14 -12 -5 0 -9
-5 -9 -11 0 -5 -19 -55 -41 -110 l-41 -99 -243 0 -243 0 14 67 c13 61 12 100
-1 57 -13 -39 -23 -49 -68 -66 -123 -46 -265 -43 -375 7 -64 29 -65 10 15 260
39 121 61 176 78 192 61 55 303 71 378 24 47 -29 192 -238 252 -363 39 -82 80
-144 52 -78 -8 19 -31 71 -50 115 -34 80 -46 103 -106 204 -100 169 -174 205
-368 183 -99 -12 -169 -43 -200 -91 -30 -45 -143 -391 -150 -458 l-6 -53 -192
0 -193 0 -36 76 c-42 89 -44 104 -13 104 38 1 106 38 125 69 10 16 110 289
222 605 l205 576 50 19 c122 47 255 110 313 149 34 24 62 45 62 47 0 2 -33
-11 -72 -30 -40 -18 -132 -58 -204 -87 l-132 -55 28 81 c15 45 134 380 265
746 130 366 289 813 353 994 l117 329 5 -109 c5 -98 10 -120 49 -219z m2996
255 c5 8 12 4 22 -9 13 -19 10 -32 -21 -129 -49 -152 -78 -263 -70 -271 4 -3
9 -1 11 6 2 7 14 25 26 42 81 109 130 171 136 171 3 0 17 -9 30 -19 24 -18 24
-20 18 -152 -3 -74 -7 -140 -9 -148 -1 -7 2 -15 7 -17 6 -2 27 27 49 64 21 37
51 87 65 112 15 25 39 74 55 110 38 88 49 99 76 75 11 -10 20 -26 20 -36 0
-25 -139 -296 -167 -327 -7 -7 -13 -18 -13 -24 0 -5 -10 -23 -22 -38 -13 -15
-34 -42 -47 -59 -23 -30 -53 -39 -78 -23 -24 15 -36 102 -30 208 7 105 0 127
-24 82 -14 -27 -81 -109 -126 -155 -35 -36 -72 -43 -94 -17 -10 12 -10 26 -2
62 18 82 45 185 63 237 9 28 30 91 45 140 37 118 43 129 60 115 10 -8 15 -8
20 0z m-2148 -580 c28 -222 13 -333 -82 -600 -64 -179 -55 -270 30 -306 39
-16 60 -10 103 29 l22 20 0 -32 c0 -28 -5 -34 -37 -48 -47 -19 -121 -13 -156
13 -36 27 -59 79 -65 151 -6 74 7 127 58 243 72 162 97 330 83 542 -6 84 -8
157 -5 163 12 19 35 -63 49 -175z m193 160 c0 -20 -76 -103 -116 -126 -46 -27
-59 -25 -66 11 -2 15 9 25 53 46 32 15 67 41 79 57 20 27 50 34 50 12z m-3785
-185 c2 -11 11 -45 19 -75 23 -79 21 -125 -6 -150 -17 -16 -31 -20 -52 -16
-47 10 -126 61 -201 129 l-70 65 69 31 69 32 24 -22 c24 -23 28 -19 13 16 -7
17 0 24 49 47 l56 26 14 -31 c7 -18 15 -41 16 -52z m-347 -127 c6 -29 16 -92
23 -140 10 -78 9 -90 -7 -117 -10 -17 -26 -31 -35 -31 -10 0 -24 -2 -31 -5
-22 -9 -49 21 -126 135 l-70 105 60 28 c57 26 61 26 75 10 13 -17 14 -16 8 5
-6 19 0 25 37 42 24 11 46 20 49 20 3 0 11 -24 17 -52z m1985 -241 c-21 -56
-33 -60 -33 -13 0 25 7 39 22 50 12 9 23 14 25 12 2 -1 -5 -24 -14 -49z m2714
26 c-16 -3 -25 -9 -21 -15 4 -7 2 -8 -4 -4 -8 5 -12 0 -12 -13 0 -15 5 -19 18
-15 14 5 15 4 2 -5 -22 -15 -27 -14 -34 12 -7 27 17 48 53 46 26 -2 26 -2 -2
-6z m98 -13 c47 -21 63 -37 40 -37 -8 0 -15 4 -15 8 0 4 -10 5 -22 2 -17 -3
-19 -2 -10 5 19 13 -20 23 -62 16 l-31 -6 25 15 c14 8 26 15 28 16 2 1 23 -8
47 -19z m-5371 -75 l35 -75 28 12 c36 16 93 46 163 86 49 27 58 30 80 19 16
-8 26 -23 28 -39 4 -35 -60 -107 -118 -133 l-40 -18 -162 75 c-89 41 -164 80
-166 86 -3 10 85 59 110 61 4 1 23 -33 42 -74z m5216 16 c0 -6 -4 -13 -10 -16
-5 -3 -10 1 -10 9 0 9 5 16 10 16 6 0 10 -4 10 -9z m252 -4 c9 -7 30 -41 48
-75 31 -62 33 -77 14 -144 -10 -33 -20 -18 -22 30 -1 35 1 42 8 27 7 -17 9
-18 9 -2 1 27 0 32 -11 29 -5 -1 -6 2 -3 8 8 13 -14 70 -27 70 -5 0 -7 4 -4 9
8 12 -18 32 -35 28 -8 -2 -11 -2 -7 0 4 2 4 11 1 19 -6 17 6 18 29 1z m-192
-1 c0 -3 -4 -8 -10 -11 -5 -3 -10 -1 -10 4 0 6 5 11 10 11 6 0 10 -2 10 -4z
m14 -80 c-32 -80 -42 -82 -14 -2 21 62 30 80 36 73 3 -3 -7 -35 -22 -71z m95
37 c13 -13 29 -23 36 -23 7 0 16 -7 19 -16 9 -24 7 -124 -3 -124 -4 0 -8 17
-8 38 -1 20 -1 44 -2 52 -1 16 -23 41 -76 85 -21 18 -24 23 -10 18 11 -3 31
-17 44 -30z m-189 8 c0 -5 -7 -14 -15 -21 -16 -14 -18 -10 -9 14 6 17 24 22
24 7z m73 -16 c-3 -9 -8 -14 -10 -11 -3 3 -2 9 2 15 9 16 15 13 8 -4z m192 5
c-3 -5 -12 -10 -18 -10 -7 0 -6 4 3 10 19 12 23 12 15 0z m241 -46 l29 -16
-27 5 c-16 2 -28 0 -28 -6 0 -8 -4 -7 -11 0 -6 6 -8 16 -5 22 9 14 8 14 42 -5z
m-61 -45 c0 -22 -1 -36 -3 -30 -6 18 -19 12 -25 -11 -4 -12 -9 -19 -13 -15 -5
5 33 97 40 97 1 0 1 -18 1 -41z m-481 15 c4 -9 2 -13 -5 -8 -8 4 -9 -4 -5 -27
4 -25 3 -28 -3 -14 -8 17 -10 13 -16 -23 -4 -23 -12 -45 -16 -48 -12 -7 -12
39 0 52 5 5 14 26 21 47 13 41 15 44 24 21z m93 -56 c-3 -8 -6 -5 -6 6 -1 11
2 17 5 13 3 -3 4 -12 1 -19z m-13 -36 c-6 -4 -13 -15 -17 -24 -3 -10 -11 -18
-17 -18 -6 0 -6 8 2 23 15 25 30 38 37 31 3 -3 1 -8 -5 -12z m166 -19 c0 -5
-11 -20 -24 -35 -24 -29 -50 -36 -61 -18 -3 6 3 10 13 10 11 0 30 11 43 25 26
27 29 29 29 18z m-316 -57 c-3 -21 -9 -35 -11 -32 -3 3 -2 21 1 42 4 20 10 34
12 31 3 -3 2 -21 -2 -41z m121 14 c3 -5 1 -10 -4 -10 -6 0 -11 5 -11 10 0 6 2
10 4 10 3 0 8 -4 11 -10z m40 -10 c-3 -5 -11 -10 -16 -10 -6 0 -7 5 -4 10 3 6
11 10 16 10 6 0 7 -4 4 -10z m-189 -85 c-8 -27 -13 -31 -19 -19 -5 9 -4 27 4
45 16 40 29 18 15 -26z m129 -12 c-11 -3 -24 -9 -29 -14 -13 -12 -26 -12 -26
0 0 11 24 19 55 19 l20 0 -20 -5z m-146 -55 c1 -5 -3 -8 -9 -8 -5 0 -10 12 -9
28 0 24 1 25 9 7 5 -11 9 -23 9 -27z m1642 -69 c16 -11 29 -29 29 -39 0 -20
-136 -298 -179 -365 -13 -22 -36 -60 -49 -85 -13 -25 -32 -54 -42 -65 -10 -11
-25 -34 -33 -51 -40 -78 -100 -124 -136 -104 -45 23 -75 204 -53 310 9 41 10
42 11 13 1 -18 5 -33 10 -33 6 0 12 -17 14 -37 2 -22 4 -12 3 22 0 33 6 70 12
82 11 20 10 22 -4 16 -15 -5 -16 -2 -10 27 3 19 12 38 19 42 14 9 5 10 -17 2
-11 -4 -16 -19 -16 -46 0 -21 -4 -37 -9 -34 -5 3 -7 24 -4 46 9 62 -14 50 -84
-44 -128 -169 -215 -244 -238 -206 -3 6 3 10 14 10 24 0 36 16 19 23 -8 3 -6
6 5 6 9 1 17 -4 17 -11 0 -6 3 -8 6 -5 13 12 -19 37 -46 37 -27 0 -46 -22 -34
-41 3 -5 3 -9 -1 -9 -3 0 -10 12 -15 26 -10 26 -10 28 40 204 23 77 37 134 47
183 4 21 8 25 18 17 11 -9 12 -6 8 12 -4 18 -3 20 6 8 9 -13 11 -13 11 1 0 16
66 53 80 44 4 -3 11 2 14 11 4 9 9 15 11 12 3 -3 -5 -38 -19 -79 -13 -41 -29
-102 -37 -136 -7 -35 -17 -63 -21 -63 -16 0 -8 -38 9 -44 10 -4 14 -4 11 0
-10 9 81 137 150 210 8 8 24 34 36 57 13 23 29 43 37 45 8 1 29 -11 48 -28
l33 -31 -6 -132 c-3 -73 -9 -165 -12 -204 -4 -46 -3 -73 4 -73 22 0 262 420
262 460 0 15 32 59 43 60 5 0 22 -9 38 -21z m-2349 -89 c5 -14 14 -88 19 -165
5 -77 12 -162 15 -190 l5 -50 -20 25 c-25 30 -27 20 -4 -23 10 -20 19 -72 24
-139 9 -120 27 -174 62 -187 15 -6 35 -33 56 -75 17 -36 54 -90 82 -120 48
-53 134 -106 171 -106 26 0 22 -21 -12 -68 -59 -81 -146 -117 -269 -110 -71 4
-111 24 -111 55 0 11 4 11 17 -2 14 -14 31 -16 102 -12 47 3 102 10 121 16 34
10 100 59 100 74 0 3 -25 14 -55 22 -76 23 -143 85 -198 188 -48 86 -66 141
-93 272 -22 111 -70 257 -94 288 -42 53 -17 50 38 -5 47 -46 48 -46 26 7 -10
25 -17 81 -20 164 -3 69 -6 143 -8 164 -4 38 -4 38 16 20 11 -10 25 -29 30
-43z m1350 -217 c31 -12 77 -59 66 -67 -47 -35 -98 -49 -98 -26 0 6 10 10 23
10 18 0 19 2 7 10 -12 8 -9 10 12 10 15 0 29 3 31 8 3 4 -16 6 -41 5 -42 -2
-44 -1 -17 7 l30 9 -35 -3 c-40 -4 -60 1 -60 16 0 6 9 8 20 5 11 -3 23 -1 26
4 3 5 -3 9 -13 9 -11 0 -28 7 -39 15 -18 15 -17 16 16 9 19 -3 52 -13 72 -21z
m-166 -46 c-6 -5 12 -6 39 -3 33 4 60 1 80 -8 30 -14 30 -14 5 -16 -14 -1 -19
-4 -12 -7 6 -2 12 -9 12 -13 0 -10 -55 5 -134 35 -46 18 -47 19 -25 30 17 9
26 10 35 1 9 -8 9 -13 0 -19z m-4873 -222 c77 -74 142 -134 143 -132 1 1 -18
44 -42 96 -25 51 -44 94 -42 96 5 5 107 -47 105 -53 -1 -4 12 -36 29 -72 17
-36 42 -96 55 -133 l24 -69 -24 -19 c-13 -10 -31 -19 -40 -19 -20 0 -143 112
-298 272 -105 108 -128 138 -103 138 6 0 10 7 10 15 0 40 49 8 183 -120z
m-192 33 c10 -16 -1 -34 -38 -61 -16 -12 -49 -36 -72 -54 -23 -17 -48 -34 -54
-36 -12 -4 4 -27 71 -105 l28 -34 49 45 c78 69 125 86 147 53 11 -16 -23 -64
-79 -113 -29 -24 -53 -50 -53 -58 0 -17 72 -115 86 -115 6 0 41 27 77 61 76
69 109 76 115 25 3 -26 -7 -40 -83 -113 -105 -100 -120 -106 -154 -66 -47 54
-175 210 -203 248 -4 6 -28 35 -53 65 -62 74 -72 125 -27 137 10 2 22 14 27
26 10 22 93 91 130 107 25 12 76 4 86 -12z m625 -156 c-9 -9 -126 42 -182 80
-35 23 -64 43 -64 45 0 2 56 -25 125 -59 68 -34 123 -64 121 -66z m-888 -101
c49 -25 83 -85 85 -153 2 -56 -21 -122 -51 -146 -13 -10 -14 -16 -5 -31 7 -10
9 -28 6 -39 -2 -11 1 -23 8 -27 9 -6 11 -2 7 13 -9 33 4 26 32 -15 14 -20 35
-48 48 -61 27 -31 28 -58 2 -72 -15 -8 -26 -7 -44 2 -23 12 -161 170 -214 245
-13 18 -35 45 -50 61 -56 58 -82 92 -82 108 0 31 52 86 104 110 62 29 105 30
154 5z m4124 -437 c23 -49 32 -84 35 -137 2 -40 5 -93 7 -119 4 -58 -4 -59
-84 -22 -49 22 -89 56 -90 76 0 3 26 -9 57 -28 85 -51 89 -49 85 49 -3 69 -22
164 -48 232 -3 8 -3 15 0 15 4 0 21 -30 38 -66z m919 -51 c-28 -92 -46 -117
-115 -163 -102 -68 -82 -65 42 7 199 113 277 138 422 131 109 -6 154 -24 255
-103 74 -57 125 -85 190 -101 l50 -13 -78 2 c-44 1 -81 5 -83 9 -3 4 3 5 13 2
17 -5 17 -5 0 6 -9 6 -22 8 -29 4 -7 -4 -8 -3 -4 4 4 7 3 12 -2 12 -5 0 -29
16 -54 35 -51 38 -158 95 -179 95 -8 0 9 -11 36 -25 28 -13 43 -25 35 -25 -12
0 -13 -2 -1 -9 10 -7 10 -10 1 -13 -7 -2 3 -4 23 -4 34 0 124 -50 112 -62 -3
-3 -19 4 -35 16 -31 23 -45 28 -35 13 3 -6 -7 -6 -26 -1 -58 17 -51 -1 10 -31
34 -15 61 -33 61 -39 0 -6 5 -8 10 -5 6 3 10 2 10 -2 0 -5 14 -17 31 -27 17
-10 28 -20 26 -23 -9 -8 -98 53 -90 62 5 4 0 5 -10 2 -10 -4 -16 -3 -12 2 5 9
-15 20 -40 22 -5 0 -24 9 -41 20 -18 11 -54 26 -80 34 -52 16 -134 20 -133 8
0 -5 27 -26 61 -47 33 -22 63 -48 66 -58 2 -10 8 -16 12 -13 13 8 43 -33 34
-47 -4 -7 -4 -10 1 -6 8 7 45 -33 45 -49 0 -4 -4 -3 -8 2 -9 13 -63 52 -77 55
-5 1 -21 7 -35 12 -60 24 -140 46 -145 38 -2 -4 5 -16 17 -26 38 -34 98 -115
98 -133 0 -15 -7 -16 -57 -10 -108 14 -300 10 -376 -7 -82 -19 -210 -74 -246
-107 l-24 -22 6 65 c3 36 9 76 13 90 7 24 7 24 -16 9 -13 -8 -42 -50 -64 -93
-36 -69 -41 -88 -45 -157 l-3 -79 -43 0 -42 0 -6 68 c-13 133 41 287 134 384
34 35 96 81 167 123 114 68 216 152 241 199 24 45 30 29 12 -31z m-3482 -75
c27 -14 52 -37 65 -59 l20 -37 -28 -83 c-16 -46 -54 -136 -84 -200 -49 -105
-57 -118 -84 -123 -120 -24 -292 25 -398 114 l-35 29 31 58 c129 243 174 303
241 321 63 18 219 6 272 -20z m4196 -258 c3 -5 2 -10 -4 -10 -5 0 -13 5 -16
10 -3 6 -2 10 4 10 5 0 13 -4 16 -10z m54 -57 c17 -21 31 -44 31 -51 0 -7 4
-11 9 -8 5 3 16 -10 25 -29 9 -19 21 -35 27 -35 6 0 7 -5 4 -10 -4 -6 -16 1
-28 17 -12 15 -24 30 -27 33 -8 8 -37 54 -40 65 -1 6 -14 20 -29 32 -14 13
-21 23 -14 23 6 0 25 -17 42 -37z m-4218 -127 c16 -13 52 -29 81 -35 75 -15
297 -28 307 -18 20 20 43 -1 66 -56 13 -32 31 -67 39 -76 23 -26 20 -29 -26
-26 -24 2 -126 4 -228 4 l-185 1 -35 44 c-19 24 -51 55 -71 68 l-37 24 24 54
c13 30 24 64 25 75 1 14 3 11 6 -7 2 -15 17 -38 34 -52z m-551 24 c40 -37 157
-96 209 -105 l40 -7 -16 -34 c-9 -19 -19 -34 -22 -34 -4 0 -35 8 -71 19 -126
36 -199 99 -185 161 4 17 8 30 10 30 1 0 17 -13 35 -30z m4875 -50 c-3 -5 -1
-10 5 -10 6 0 8 -4 5 -10 -3 -5 -2 -10 3 -10 11 0 37 -88 29 -96 -3 -3 -9 10
-12 30 -4 20 -16 47 -27 61 -17 21 -18 45 -2 45 3 0 2 -4 -1 -10z m-4881 -82
c19 -13 35 -25 35 -28 0 -3 -18 -16 -41 -30 -46 -28 -121 -122 -138 -175 l-12
-35 -29 17 c-17 10 -42 30 -57 46 l-27 28 24 43 c29 56 62 87 131 125 66 37
69 37 114 9z m406 14 c0 -16 -30 -50 -49 -55 -19 -5 -18 -2 5 29 25 32 44 44
44 26z m118 -61 c51 -50 70 -106 52 -151 -17 -42 -31 -48 -23 -10 3 17 0 50
-8 72 l-13 41 -13 -29 c-7 -16 -12 -23 -13 -16 0 7 5 23 11 35 10 18 8 24 -20
47 -30 25 -41 50 -22 50 5 0 27 -18 49 -39z m-383 -42 c36 -22 65 -48 65 -56
0 -30 -66 -79 -132 -98 -57 -16 -208 -31 -208 -20 0 13 28 66 58 108 36 51
106 106 135 107 10 0 47 -18 82 -41z m1422 22 c35 -29 161 -54 242 -49 l68 4
-8 -31 c-5 -16 -9 -31 -9 -32 0 -2 -26 -3 -58 -3 -102 0 -232 30 -232 53 0 6
-3 7 -7 4 -12 -13 -33 15 -33 44 0 34 4 35 37 10z m-1087 -1 c0 -5 -7 -10 -15
-10 -21 0 -19 -18 3 -23 9 -3 0 -5 -21 -6 l-38 -1 28 25 c30 26 43 31 43 15z
m4457 -12 c-3 -8 -6 -5 -6 6 -1 11 2 17 5 13 3 -3 4 -12 1 -19z m-4750 -4 c-3
-3 -12 -4 -19 -1 -8 3 -5 6 6 6 11 1 17 -2 13 -5z m214 -8 c-12 -7 -18 -15
-15 -19 4 -4 2 -7 -5 -7 -7 0 -9 -5 -6 -10 4 -6 10 -8 15 -5 12 7 21 -10 25
-48 4 -32 4 -32 -9 -8 -8 14 -11 32 -8 40 3 8 1 12 -5 8 -6 -4 -19 3 -29 15
-11 12 -13 18 -5 13 11 -6 13 -3 9 11 -4 15 1 19 25 20 28 1 29 1 8 -10z
m1583 -16 c-20 -38 -39 -51 -29 -19 9 28 24 49 35 49 5 0 2 -13 -6 -30z
m-1714 10 c10 -6 2 -7 -25 -3 -49 7 -58 13 -19 13 16 0 36 -5 44 -10z m4680
-10 c0 -5 -8 -10 -17 -10 -15 0 -16 2 -3 10 19 12 20 12 20 0z m-4690 -20 c6
-11 8 -20 6 -20 -3 0 -10 9 -16 20 -6 11 -8 20 -6 20 3 0 10 -9 16 -20z m-20
-24 c0 -8 -7 -20 -17 -27 -15 -13 -15 -12 -4 9 6 12 9 28 5 34 -4 7 -3 8 4 4
7 -4 12 -13 12 -20z m297 -8 c-3 -8 -6 -5 -6 6 -1 11 2 17 5 13 3 -3 4 -12 1
-19z m971 -9 c-19 -7 -25 -15 -21 -27 4 -15 3 -15 -7 -2 -9 11 -13 12 -17 3
-6 -15 -148 -18 -157 -4 -12 18 69 40 149 40 64 -1 75 -3 53 -10z m-1143 -36
c-20 -15 -20 -15 2 -10 15 3 23 -1 26 -15 4 -15 3 -17 -8 -8 -8 7 -19 9 -25 5
-5 -3 -10 -4 -10 -1 0 2 -3 11 -6 20 -4 11 -1 16 11 16 12 0 15 5 10 18 -5 14
-4 15 7 4 11 -11 9 -16 -7 -29z m184 10 c0 -11 -3 -13 -6 -5 -2 6 -9 12 -14
12 -6 0 -5 -9 2 -21 8 -16 8 -24 -1 -33 -8 -8 -9 -6 -4 8 5 13 4 17 -4 12 -7
-4 -12 -16 -12 -26 0 -10 -4 -21 -8 -24 -9 -6 -8 19 2 47 3 9 8 24 11 32 6 21
35 19 34 -2z m1021 2 c11 -13 7 -15 -25 -15 -32 0 -36 2 -25 15 7 8 18 15 25
15 7 0 18 -7 25 -15z m1155 5 c28 -6 27 -7 -22 -19 -28 -7 -54 -19 -57 -28 -4
-10 -14 -13 -33 -9 -23 4 -495 19 -593 19 -14 0 -19 2 -11 4 10 4 10 7 1 13
-8 5 -7 9 5 13 9 4 13 3 10 -3 -13 -21 45 -22 77 -1 31 19 46 20 313 19 154
-1 294 -4 310 -8z m-2225 -10 c0 -5 -4 -10 -10 -10 -5 0 -10 5 -10 10 0 6 5
10 10 10 6 0 10 -4 10 -10z m2470 6 c0 -3 -17 -10 -37 -16 -21 -7 -43 -19 -50
-27 -9 -12 -25 -13 -77 -8 -36 4 -66 11 -66 15 0 19 79 39 153 39 42 1 77 -1
77 -3z m162 -18 c-18 -5 -35 -15 -39 -23 -4 -11 -23 -15 -74 -15 -38 0 -69 4
-69 10 0 25 92 48 168 41 l47 -4 -33 -9z m-1472 2 c11 -7 5 -9 -22 -7 -20 1
-34 5 -31 10 6 10 35 9 53 -3z m311 -8 c-13 -2 -27 0 -32 5 -6 6 3 7 23 4 28
-4 29 -6 9 -9z m1359 -10 c-30 -15 -54 -33 -52 -39 3 -18 -26 -16 -44 2 -9 8
-31 15 -50 15 -19 0 -34 4 -34 9 0 19 78 39 155 40 l80 0 -55 -27z m-1437 11
c-7 -2 -21 -2 -30 0 -10 3 -4 5 12 5 17 0 24 -2 18 -5z m-2016 -94 l48 -20
-55 6 c-56 6 -110 37 -130 74 -17 33 2 31 46 -5 23 -20 65 -44 91 -55z m1625
81 c44 0 67 -4 63 -10 -4 -6 -11 -8 -16 -5 -5 4 -9 1 -9 -5 0 -6 -5 -8 -10 -5
-6 4 -26 -3 -44 -14 -27 -17 -39 -19 -60 -11 -14 5 -82 9 -151 8 -69 -1 -128
2 -132 5 -3 4 14 16 38 27 38 17 58 19 148 15 57 -3 135 -5 173 -5z m335 4
c-3 -3 -12 -4 -19 -1 -8 3 -5 6 6 6 11 1 17 -2 13 -5z m1553 -6 c0 -6 -3 -8
-6 -5 -4 3 -15 2 -25 -4 -12 -6 -19 -6 -19 0 0 8 16 16 43 20 4 0 7 -4 7 -11z
m86 3 c-3 -5 -15 -7 -26 -4 -28 7 -25 13 6 13 14 0 23 -4 20 -9z m-3336 -16
c-14 -8 -29 -14 -35 -14 -5 0 1 6 15 14 14 8 30 14 35 14 6 0 -1 -6 -15 -14z
m294 0 c-4 -8 -8 -15 -10 -15 -2 0 -4 7 -4 15 0 8 4 15 10 15 5 0 7 -7 4 -15z
m2259 8 c-7 -2 -19 -2 -25 0 -7 3 -2 5 12 5 14 0 19 -2 13 -5z m227 3 c0 -2
-7 -7 -16 -10 -8 -3 -12 -2 -9 4 6 10 25 14 25 6z m-1166 -18 c-3 -5 -14 -6
-24 -3 -13 4 -23 -1 -32 -14 -14 -23 -43 -26 -113 -12 l-40 8 33 15 c37 16
186 22 176 6z m129 5 c-7 -2 -19 -2 -25 0 -7 3 -2 5 12 5 14 0 19 -2 13 -5z
m44 -13 c11 -16 10 -18 -3 -13 -9 3 -19 0 -24 -6 -7 -12 -25 -13 -107 -8 -58
4 -28 22 40 25 37 2 67 7 67 12 0 16 14 11 27 -10z m48 10 c-3 -5 -11 -10 -16
-10 -6 0 -7 5 -4 10 3 6 11 10 16 10 6 0 7 -4 4 -10z m1450 0 c-3 -5 -11 -10
-16 -10 -6 0 -7 5 -4 10 3 6 11 10 16 10 6 0 7 -4 4 -10z m-1268 -14 c-16 -7
-32 -19 -37 -26 -6 -9 -26 -11 -84 -5 -120 11 -65 43 74 43 69 0 73 -1 47 -12z
m223 9 c0 -3 -20 -10 -45 -16 -25 -6 -45 -15 -45 -20 0 -5 -27 -8 -60 -8 -33
1 -60 6 -60 10 0 5 1 9 3 9 1 0 20 7 42 15 37 13 165 21 165 10z m185 -5 c19
-8 19 -9 -2 -9 -12 -1 -29 -9 -39 -18 -14 -14 -32 -17 -83 -15 -93 3 -97 15
-14 38 55 15 109 16 138 4z m935 1 c0 -6 -4 -12 -8 -15 -5 -3 -9 1 -9 9 0 8 4
15 9 15 4 0 8 -4 8 -9z m-3230 -11 c-12 -8 -12 -10 5 -11 l20 0 -20 -9 c-11
-5 -38 -8 -60 -8 l-40 1 45 7 c25 4 38 8 30 9 -13 1 -13 2 0 11 8 5 20 10 25
10 6 0 3 -5 -5 -10z m197 -4 c0 -8 -6 -12 -14 -9 -7 3 -10 9 -7 14 8 14 21 11
21 -5z m2319 7 c-4 -4 -13 -8 -19 -9 -7 0 -20 -2 -29 -2 -10 -1 -18 -8 -18
-16 0 -7 -11 -16 -24 -18 -26 -5 -116 13 -116 23 0 3 15 11 33 17 37 11 184
16 173 5z m439 -14 c7 -7 4 -8 -7 -4 -21 8 -118 -34 -118 -51 0 -20 -13 -17
-33 6 -15 18 -29 20 -152 20 -75 0 -135 4 -135 9 0 5 19 16 43 25 35 13 73 15
217 10 96 -3 180 -10 185 -15z m160 11 c-3 -5 -14 -10 -23 -10 -15 0 -15 2 -2
10 20 13 33 13 25 0z m-2950 -32 c-9 -6 -19 -7 -22 -4 -4 3 -1 6 6 6 7 0 9 4
6 10 -4 6 1 7 11 3 15 -6 15 -7 -1 -15z m2900 14 c-17 -14 -65 -32 -65 -24 0
5 12 13 28 19 34 14 49 16 37 5z m-3352 -9 c-7 -2 -21 -2 -30 0 -10 3 -4 5 12
5 17 0 24 -2 18 -5z m1195 0 c-10 -2 -18 -10 -18 -16 0 -8 -3 -8 -9 1 -6 11
-13 7 -29 -13 -21 -26 -24 -27 -87 -20 -36 3 -65 11 -65 16 0 21 67 38 145 37
44 0 72 -2 63 -5z m217 -3 c-3 -5 -11 -10 -18 -10 -6 0 -28 -12 -49 -26 -36
-25 -40 -26 -82 -14 -24 7 -49 9 -55 5 -6 -3 -11 0 -11 8 0 24 69 46 148 46
46 1 71 -3 67 -9z m-1297 -7 c-10 -2 -26 -2 -35 0 -10 3 -2 5 17 5 19 0 27 -2
18 -5z m1470 -13 c-20 -11 -40 -24 -43 -30 -7 -11 -52 -13 -108 -4 -84 14 -2
52 113 53 l75 0 -37 -19z m212 10 c0 -5 -4 -10 -9 -10 -6 0 -22 -12 -38 -26
-21 -20 -34 -24 -57 -20 -15 3 -41 6 -57 6 -44 0 -36 26 14 43 48 18 147 22
147 7z m1595 0 c-3 -5 -12 -10 -18 -10 -7 0 -6 4 3 10 19 12 23 12 15 0z
m-3055 -10 c0 -5 -7 -7 -15 -4 -8 4 -15 8 -15 10 0 2 7 4 15 4 8 0 15 -4 15
-10z m1680 3 c-36 -11 -60 -27 -60 -40 0 -8 -11 -13 -29 -13 -47 0 -121 12
-121 20 0 18 80 38 150 38 41 0 68 -2 60 -5z m220 2 c0 -3 -17 -12 -37 -20
-21 -9 -40 -21 -44 -26 -7 -11 -127 -14 -137 -4 -9 9 13 26 54 40 36 13 164
21 164 10z m166 -20 c-21 -7 -43 -21 -50 -30 -10 -14 -22 -15 -74 -9 -34 3
-62 10 -62 15 0 24 98 47 178 40 l46 -3 -38 -13z m-2102 6 c4 -5 -3 -7 -14 -4
-23 6 -26 13 -6 13 8 0 17 -4 20 -9z m76 -1 c-8 -5 -19 -10 -25 -10 -5 0 -3 5
5 10 8 5 20 10 25 10 6 0 3 -5 -5 -10z m2270 5 c0 -3 -17 -12 -37 -20 -21 -9
-40 -20 -43 -26 -9 -13 -55 -14 -110 -2 l-45 10 45 21 c33 16 65 22 118 22 39
0 72 -2 72 -5z m-2663 -11 c-3 -3 -12 -4 -19 -1 -8 3 -5 6 6 6 11 1 17 -2 13
-5z m206 -1 c-7 -2 -19 -2 -25 0 -7 3 -2 5 12 5 14 0 19 -2 13 -5z m2862 -1
c-6 -5 -31 -17 -57 -26 -50 -18 -60 -31 -30 -39 9 -3 3 -5 -15 -6 -17 0 -33 5
-36 12 -3 8 -34 12 -108 13 -163 1 -181 3 -177 16 9 27 75 36 253 37 98 1 175
-3 170 -7z m335 -2 c-8 -5 -19 -10 -25 -10 -5 0 -3 5 5 10 8 5 20 10 25 10 6
0 3 -5 -5 -10z m-1615 -10 c3 -5 1 -10 -4 -10 -6 0 -11 5 -11 10 0 6 2 10 4
10 3 0 8 -4 11 -10z m1570 0 c3 -5 1 -10 -4 -10 -6 0 -11 5 -11 10 0 6 2 10 4
10 3 0 8 -4 11 -10z m-3388 -6 c-3 -3 -12 -4 -19 -1 -8 3 -5 6 6 6 11 1 17 -2
13 -5z m76 -11 c-7 -2 -21 -2 -30 0 -10 3 -4 5 12 5 17 0 24 -2 18 -5z m175 0
c-15 -2 -42 -2 -60 0 -18 2 -6 4 27 4 33 0 48 -2 33 -4z m783 -18 c-38 -18
-52 -29 -47 -40 4 -12 -6 -15 -59 -15 -66 0 -79 7 -69 35 11 29 64 44 149 44
l80 0 -54 -24z m254 15 c-4 -6 -10 -8 -15 -5 -15 9 -88 -35 -93 -57 -5 -17
-11 -20 -38 -14 -17 3 -42 6 -55 6 -47 0 -25 45 32 65 46 17 178 20 169 5z
m1815 0 c-8 -5 -19 -10 -25 -10 -5 0 -3 5 5 10 8 5 20 10 25 10 6 0 3 -5 -5
-10z m183 -5 c-3 -9 -8 -14 -10 -11 -3 3 -2 9 2 15 9 16 15 13 8 -4z m-1828
-15 c-22 -10 -46 -19 -52 -19 -7 -1 -13 -10 -13 -21 0 -18 -7 -20 -65 -20 -57
0 -65 2 -65 19 0 38 59 59 170 59 l65 1 -40 -19z m209 12 c3 -5 -11 -14 -30
-21 -22 -8 -34 -19 -34 -31 0 -28 -14 -32 -75 -25 -44 6 -55 11 -55 26 0 10 9
23 19 29 45 24 164 39 175 22z m1390 0 c3 -5 -1 -9 -9 -9 -8 0 -12 4 -9 9 3 4
7 8 9 8 2 0 6 -4 9 -8z m106 4 c0 -2 -7 -7 -16 -10 -8 -3 -12 -2 -9 4 6 10 25
14 25 6z m-1270 -21 c-14 -8 -32 -14 -41 -15 -19 0 -52 -34 -42 -43 3 -4 -26
-7 -65 -7 -40 0 -72 3 -72 8 0 20 34 53 63 61 18 5 66 9 107 10 70 0 73 -1 50
-14z m173 8 c4 -4 -6 -12 -23 -19 -22 -10 -30 -20 -30 -39 0 -28 -7 -29 -84
-19 -51 7 -54 12 -28 43 22 28 147 53 165 34z m207 -21 c-26 -10 -49 -27 -55
-40 -10 -23 -42 -28 -104 -16 -42 9 -38 33 9 56 25 13 58 18 115 17 l80 0 -45
-17z m245 8 c-3 -5 -14 -10 -23 -10 -9 0 -32 -9 -51 -21 -27 -16 -31 -23 -20
-30 9 -5 -14 -9 -65 -9 -67 0 -77 2 -72 16 3 9 6 18 6 20 0 3 19 14 43 24 46
21 194 29 182 10z m168 -20 c-23 -10 -48 -28 -55 -39 -10 -17 -23 -21 -63 -21
-59 0 -78 10 -69 34 11 28 64 44 149 44 l80 1 -42 -19z m247 12 c0 -4 -22 -15
-50 -25 -29 -10 -50 -24 -50 -32 0 -12 -15 -15 -65 -15 -58 0 -65 2 -65 20 0
20 23 36 69 51 34 10 161 11 161 1z m210 4 c0 -2 -7 -7 -16 -10 -8 -3 -12 -2
-9 4 6 10 25 14 25 6z m-80 -16 c-12 -8 -12 -10 -1 -10 8 0 12 -2 9 -5 -3 -3
-13 -2 -22 1 -14 5 -15 9 -4 15 7 5 18 9 23 9 6 0 3 -5 -5 -10z m145 -21 c-4
-5 -14 -8 -23 -8 -15 1 -15 2 1 6 9 2 14 9 11 15 -4 7 -2 8 5 4 6 -4 9 -12 6
-17z m-963 -11 c-7 -7 -12 -8 -12 -2 0 14 12 26 19 19 2 -3 -1 -11 -7 -17z
m683 12 c-3 -5 -12 -10 -18 -10 -7 0 -6 4 3 10 19 12 23 12 15 0z m-1867 -17
c100 1 182 -2 182 -6 0 -5 44 -8 98 -6 53 1 131 -1 172 -5 50 -5 85 -4 105 4
21 8 31 8 33 1 5 -14 157 -15 182 -1 11 6 21 6 24 1 10 -15 138 -24 170 -11
20 7 32 8 40 0 13 -13 142 -13 167 1 15 7 24 7 34 -1 10 -8 47 -11 109 -8 52
1 98 0 102 -4 11 -11 156 -9 174 2 8 5 19 5 25 1 31 -26 241 -8 307 25 15 8
31 14 35 14 4 -1 -27 -19 -69 -41 l-78 -39 -487 10 c-467 10 -945 22 -1435 36
-126 4 -228 10 -228 14 0 12 94 26 125 18 17 -4 112 -6 213 -5z m2082 -7 c0
-2 -7 -7 -16 -10 -8 -3 -12 -2 -9 4 6 10 25 14 25 6z m-54 -20 c18 5 18 5 0
-6 -15 -10 -21 -9 -35 6 -14 16 -14 17 0 6 9 -7 25 -10 35 -6z m-47 -10 c9
-11 9 -16 -1 -22 -7 -4 -10 -4 -6 1 4 4 3 14 -3 22 -6 7 -9 13 -6 13 2 0 10
-6 16 -14z m-29 0 c0 -2 -7 -7 -16 -10 -8 -3 -12 -2 -9 4 6 10 25 14 25 6z
m-1200 -31 c371 -8 757 -18 858 -21 l182 -6 0 -25 c0 -22 -3 -24 -27 -19 -71
14 -532 27 -1343 37 -486 5 -888 13 -892 15 -14 9 -8 32 10 38 20 6 284 2
1212 -19z m1155 6 c3 -5 2 -12 -3 -15 -5 -3 -9 1 -9 9 0 17 3 19 12 6z m-80
-50 c3 -5 1 -12 -5 -16 -5 -3 -10 1 -10 9 0 18 6 21 15 7z"/>
<path d="M3709 7383 c-2 -46 3 -158 7 -162 3 -3 20 3 39 13 62 34 70 117 15
149 -36 22 -60 22 -61 0z"/>
<path d="M1956 6727 c3 -10 9 -15 12 -12 3 3 0 11 -7 18 -10 9 -11 8 -5 -6z"/>
<path d="M1982 6720 c0 -8 4 -26 8 -40 6 -20 8 -21 8 -5 0 11 -3 29 -8 40 -5
12 -8 14 -8 5z"/>
<path d="M1701 6664 c0 -11 3 -14 6 -6 3 7 2 16 -1 19 -3 4 -6 -2 -5 -13z"/>
<path d="M1970 6641 c8 -5 17 -8 21 -5 4 2 7 -4 7 -13 -1 -10 2 -29 6 -42 6
-16 5 -21 -3 -17 -6 4 -1 -9 10 -29 25 -41 35 -41 18 1 -6 16 -14 47 -17 68
-6 32 -12 40 -32 43 -19 2 -21 1 -10 -6z"/>
<path d="M1949 6623 c12 -23 29 -38 37 -31 2 3 -8 15 -22 29 -25 23 -26 23
-15 2z"/>
<path d="M1869 6423 c-13 -16 -12 -17 4 -4 16 13 21 21 13 21 -2 0 -10 -8 -17
-17z"/>
<path d="M1660 6366 c0 -2 7 -7 16 -10 8 -3 12 -2 9 4 -6 10 -25 14 -25 6z"/>
<path d="M1578 6309 c-16 -17 -14 -29 4 -29 4 0 8 8 8 18 0 14 2 15 10 2 5 -8
10 -10 10 -5 0 24 -15 31 -32 14z"/>
<path d="M5778 6763 l-34 -118 30 -3 c54 -6 102 15 125 54 23 38 27 94 11 125
-9 15 -77 59 -93 59 -3 0 -20 -53 -39 -117z"/>
<path d="M998 6459 l-26 -10 16 -37 c34 -73 96 -182 105 -182 5 0 7 7 4 14 -4
9 -1 13 6 10 7 -2 22 8 33 23 22 30 31 93 13 93 -6 0 -8 -9 -4 -21 6 -16 4
-20 -6 -13 -11 6 -11 4 0 -10 13 -15 12 -20 -8 -39 -22 -22 -22 -22 -37 -3 -8
11 -14 24 -14 30 0 5 6 1 14 -10 12 -16 17 -17 28 -6 11 11 10 12 -4 7 -20 -8
-25 10 -5 19 6 3 -1 3 -16 1 -24 -3 -27 -1 -22 16 5 14 0 28 -14 43 l-20 22
45 10 c42 10 47 9 54 -10 7 -16 9 -17 9 -4 1 9 -13 28 -30 42 -32 28 -72 32
-121 15z m52 -9 c8 -5 11 -10 5 -10 -5 0 -17 5 -25 10 -8 5 -10 10 -5 10 6 0
17 -5 25 -10z m54 -5 c19 -15 19 -15 -5 -13 -14 1 -26 8 -26 15 0 17 7 16 31
-2z m-62 -87 c-7 -7 -10 -4 -9 8 1 11 -3 18 -10 17 -7 -2 -10 4 -6 13 4 12 8
11 20 -6 11 -15 12 -25 5 -32z m23 -48 c9 -16 13 -30 11 -30 -3 0 -12 14 -21
30 -9 17 -13 30 -11 30 3 0 12 -13 21 -30z"/>
<path d="M2180 6543 c0 -10 40 -36 46 -30 3 2 -7 12 -21 21 -14 9 -25 13 -25
9z"/>
<path d="M2170 6510 c0 -5 5 -10 11 -10 5 0 7 5 4 10 -3 6 -8 10 -11 10 -2 0
-4 -4 -4 -10z"/>
<path d="M4180 6338 c-10 -21 -10 -22 3 -5 11 14 16 15 20 5 4 -9 6 -9 6 -1 2
23 -18 23 -29 1z"/>
<path d="M4124 6278 l-19 -23 23 19 c21 18 27 26 19 26 -2 0 -12 -10 -23 -22z"/>
<path d="M3750 6126 c0 -2 7 -7 16 -10 8 -3 12 -2 9 4 -6 10 -25 14 -25 6z"/>
<path d="M3718 6113 c7 -3 16 -2 19 1 4 3 -2 6 -13 5 -11 0 -14 -3 -6 -6z"/>
<path d="M3620 6100 c0 -12 8 -12 35 0 18 8 17 9 -7 9 -16 1 -28 -3 -28 -9z"/>
<path d="M3573 6093 c9 -2 23 -2 30 0 6 3 -1 5 -18 5 -16 0 -22 -2 -12 -5z"/>
<path d="M3425 6060 c-22 -11 -31 -18 -20 -14 11 3 35 8 53 11 18 3 35 10 38
14 9 16 -30 9 -71 -11z"/>
<path d="M3344 6025 c-17 -13 -16 -14 16 -8 l35 6 -25 -28 -25 -28 25 16 c13
9 35 17 49 17 30 0 26 5 -21 24 -31 13 -38 13 -54 1z"/>
<path d="M3397 5933 c-20 -14 -37 -30 -37 -35 0 -13 38 10 49 30 9 14 12 14
20 3 6 -9 11 -10 15 -2 4 6 2 11 -4 11 -6 0 -8 5 -5 10 9 15 3 12 -38 -17z"/>
<path d="M3262 5900 c-28 -27 -46 -50 -42 -50 5 0 12 5 15 10 3 6 11 10 16 10
6 0 7 -6 3 -12 -6 -10 -5 -10 8 -1 8 7 19 9 23 5 5 -4 5 -2 2 5 -4 6 -4 13 0
16 5 2 2 2 -4 1 -20 -5 -15 14 6 25 16 9 37 41 27 41 -2 0 -26 -22 -54 -50z"/>
<path d="M3314 5889 c0 -21 5 -23 23 -11 9 6 8 11 -5 19 -15 9 -18 7 -18 -8z"/>
<path d="M3180 5839 c-11 -19 -7 -39 5 -27 7 7 15 48 10 48 -2 0 -9 -9 -15
-21z"/>
<path d="M3180 5503 c13 -18 25 -33 27 -33 8 0 -17 38 -33 51 -11 9 -9 2 6
-18z"/>
<path d="M2619 4338 c0 -2 -3 -72 -5 -156 -7 -176 3 -231 47 -285 35 -42 83
-56 129 -37 49 20 62 52 71 173 4 60 13 115 18 120 14 14 14 47 1 67 -9 13
-12 13 -24 -2 -12 -16 -21 -12 -117 52 -92 62 -118 76 -120 68z m87 -182 c14
-56 -47 -92 -66 -40 -14 35 -12 50 6 68 20 20 51 5 60 -28z"/>
<path d="M2652 3484 c2 -11 11 -20 22 -22 13 -3 17 1 14 14 -2 11 -11 20 -22
22 -13 3 -17 -1 -14 -14z"/>
<path d="M2852 3488 c-15 -15 -16 -38 -2 -38 18 0 60 32 54 41 -8 13 -38 11
-52 -3z"/>
<path d="M3061 3071 c-25 -16 -5 -41 28 -35 21 5 43 -1 80 -22 51 -29 66 -29
55 -1 -15 39 -130 80 -163 58z"/>
<path d="M7146 5242 c-3 -5 -15 -35 -27 -68 -12 -32 -26 -65 -32 -72 -14 -18
-3 -25 45 -25 36 0 46 5 70 34 15 18 28 41 28 51 0 30 -21 65 -47 77 -29 13
-30 13 -37 3z"/>
<path d="M4980 2471 c0 -6 4 -13 10 -16 6 -3 7 1 4 9 -7 18 -14 21 -14 7z"/>
<path d="M5031 2375 c0 -5 6 -21 14 -35 8 -14 14 -20 14 -15 0 6 -6 21 -14 35
-8 14 -14 21 -14 15z"/>
<path d="M5066 2297 c3 -10 9 -15 12 -12 3 3 0 11 -7 18 -10 9 -11 8 -5 -6z"/>
<path d="M5110 2205 c0 -5 5 -17 10 -25 5 -8 10 -10 10 -5 0 6 -5 17 -10 25
-5 8 -10 11 -10 5z"/>
<path d="M4671 2154 c0 -11 3 -14 6 -6 3 7 2 16 -1 19 -3 4 -6 -2 -5 -13z"/>
<path d="M5130 2151 c0 -6 4 -13 10 -16 6 -3 7 1 4 9 -7 18 -14 21 -14 7z"/>
<path d="M4365 2010 c10 -11 20 -20 23 -20 3 0 -3 9 -13 20 -10 11 -20 20 -23
20 -3 0 3 -9 13 -20z"/>
<path d="M5190 2021 c0 -6 4 -13 10 -16 6 -3 7 1 4 9 -7 18 -14 21 -14 7z"/>
<path d="M5230 1951 c5 -11 15 -23 21 -27 6 -3 3 5 -6 20 -20 30 -30 35 -15 7z"/>
<path d="M4291 1944 c0 -11 3 -14 6 -6 3 7 2 16 -1 19 -3 4 -6 -2 -5 -13z"/>
<path d="M4941 1894 c0 -11 3 -14 6 -6 3 7 2 16 -1 19 -3 4 -6 -2 -5 -13z"/>
<path d="M4896 1875 c-9 -26 -7 -32 5 -12 6 10 9 21 6 23 -2 3 -7 -2 -11 -11z"/>
<path d="M5266 1865 c-3 -9 -2 -13 4 -10 5 3 16 -8 25 -24 8 -16 20 -33 26
-36 8 -5 -30 63 -46 83 -1 2 -5 -4 -9 -13z"/>
<path d="M4470 1866 c0 -2 8 -10 18 -17 15 -13 16 -12 3 4 -13 16 -21 21 -21
13z"/>
<path d="M4932 1820 c0 -14 2 -19 5 -12 2 6 2 18 0 25 -3 6 -5 1 -5 -13z"/>
<path d="M4526 1777 c3 -10 9 -15 12 -12 3 3 0 11 -7 18 -10 9 -11 8 -5 -6z"/>
<path d="M4856 1765 c-9 -26 -7 -32 5 -12 6 10 9 21 6 23 -2 3 -7 -2 -11 -11z"/>
<path d="M4363 1715 c0 -22 2 -30 4 -17 2 12 2 30 0 40 -3 9 -5 -1 -4 -23z"/>
<path d="M4550 1741 c0 -6 4 -13 10 -16 6 -3 7 1 4 9 -7 18 -14 21 -14 7z"/>
<path d="M4831 1703 c-10 -26 -10 -27 4 -9 8 11 15 23 15 28 0 15 -7 8 -19
-19z"/>
<path d="M5370 1711 c5 -11 15 -23 21 -27 6 -3 3 5 -6 20 -20 30 -30 35 -15 7z"/>
<path d="M4570 1706 c0 -2 8 -10 18 -17 15 -13 16 -12 3 4 -13 16 -21 21 -21
13z"/>
<path d="M4609 1652 c5 -10 18 -25 27 -33 11 -9 9 -2 -6 19 -26 35 -36 42 -21
14z"/>
<path d="M4811 1654 c0 -11 3 -14 6 -6 3 7 2 16 -1 19 -3 4 -6 -2 -5 -13z"/>
<path d="M5430 1626 c19 -26 39 -50 44 -54 5 -3 -6 16 -24 42 -19 26 -39 50
-44 54 -5 3 6 -16 24 -42z"/>
<path d="M7727 3544 c-4 -4 -7 -17 -7 -28 0 -12 -7 -34 -15 -50 -8 -15 -12
-33 -9 -38 7 -12 -15 -58 -28 -58 -5 0 -4 9 2 21 7 11 10 23 7 25 -5 5 -37
-70 -37 -85 0 -5 11 -8 24 -8 20 0 26 6 32 31 9 42 52 126 64 126 15 0 12 28
-4 37 -7 4 -15 14 -17 21 -3 7 -8 10 -12 6z m-47 -194 c0 -5 -4 -10 -10 -10
-5 0 -10 5 -10 10 0 6 5 10 10 10 6 0 10 -4 10 -10z"/>
<path d="M7351 3478 c-7 -19 -5 -24 11 -26 18 -3 19 -10 15 -80 l-5 -77 10 75
c6 41 16 78 22 82 7 5 7 8 -2 8 -7 0 -10 5 -6 12 5 8 0 9 -15 5 -18 -4 -20 -3
-10 9 8 10 9 14 0 14 -6 0 -15 -10 -20 -22z"/>
<path d="M7130 3473 c0 -15 -2 -16 -10 -3 -8 13 -10 12 -10 -2 0 -10 4 -18 9
-18 5 0 11 -10 14 -22 4 -12 9 -19 13 -15 3 3 3 14 -1 24 -5 10 -7 26 -6 36 1
9 0 17 -3 17 -3 0 -6 -8 -6 -17z"/>
<path d="M7151 3464 c0 -11 3 -14 6 -6 3 7 2 16 -1 19 -3 4 -6 -2 -5 -13z"/>
<path d="M7741 3427 c-13 -21 -12 -21 5 -5 10 10 16 20 13 22 -3 3 -11 -5 -18
-17z"/>
<path d="M7330 3424 c0 -8 5 -12 10 -9 6 3 10 10 10 16 0 5 -4 9 -10 9 -5 0
-10 -7 -10 -16z"/>
<path d="M7353 3395 c-6 -14 -7 -25 -2 -25 11 0 22 25 17 39 -1 6 -8 -1 -15
-14z"/>
<path d="M7131 3384 c0 -11 3 -14 6 -6 3 7 2 16 -1 19 -3 4 -6 -2 -5 -13z"/>
<path d="M7266 3361 c-9 -10 -14 -25 -10 -35 3 -9 1 -16 -5 -16 -6 0 -11 5
-11 11 0 5 -4 7 -10 4 -17 -10 -11 -21 16 -33 18 -9 23 -9 18 -1 -3 6 -1 15 7
19 10 7 24 70 15 70 -2 0 -10 -8 -20 -19z"/>
<path d="M7390 3275 c-4 -107 1 -157 15 -143 11 11 18 158 7 158 -6 0 -13 12
-15 28 -2 15 -5 -4 -7 -43z"/>
<path d="M7047 3323 c-4 -3 -7 -17 -7 -30 0 -22 1 -22 20 -6 11 10 20 23 20
30 0 14 -22 18 -33 6z"/>
<path d="M7200 3293 c0 -5 4 -14 9 -21 7 -11 9 -11 14 1 3 8 3 18 0 21 -9 8
-23 7 -23 -1z"/>
<path d="M7638 3283 c-9 -10 -19 -29 -23 -42 -7 -24 -8 -24 -23 -5 -13 17 -14
17 -8 1 3 -10 6 -23 6 -27 0 -5 10 -14 22 -21 18 -10 20 -9 15 5 -4 9 -1 16 6
16 8 0 8 3 -2 9 -11 7 -11 13 0 32 11 21 13 22 19 5 5 -16 7 -15 17 7 17 38
-2 51 -29 20z"/>
<path d="M7095 3280 c3 -5 11 -10 16 -10 6 0 7 5 4 10 -3 6 -11 10 -16 10 -6
0 -7 -4 -4 -10z"/>
<path d="M7023 3265 c18 -73 18 -78 5 -72 -9 3 -21 -11 -34 -39 l-21 -44 39 0
c21 0 41 0 46 0 4 0 7 6 7 13 0 6 -7 11 -15 9 -12 -3 -13 -1 -2 9 14 15 17 83
2 74 -6 -3 -10 4 -10 17 0 13 -5 30 -11 38 -8 12 -9 11 -6 -5z m-6 -127 c-3
-8 -6 -5 -6 6 -1 11 2 17 5 13 3 -3 4 -12 1 -19z"/>
<path d="M7195 3240 c2 -19 4 -37 4 -39 1 -3 6 0 12 6 8 8 6 19 -5 39 l-15 29
4 -35z"/>
<path d="M7050 3250 c0 -5 7 -7 15 -4 8 4 15 8 15 10 0 2 -7 4 -15 4 -8 0 -15
-4 -15 -10z"/>
<path d="M7220 3239 c0 -5 5 -7 10 -4 6 3 10 8 10 11 0 2 -4 4 -10 4 -5 0 -10
-5 -10 -11z"/>
<path d="M7170 3195 c7 -9 15 -13 17 -11 7 7 -7 26 -19 26 -6 0 -6 -6 2 -15z"/>
<path d="M7120 3154 c0 -15 6 -24 16 -24 11 0 14 6 8 22 -6 21 -5 22 11 8 16
-13 18 -13 13 0 -2 8 -14 16 -26 16 -17 1 -22 -4 -22 -22z"/>
<path d="M7516 3143 c-6 -14 -5 -15 5 -6 7 7 10 15 7 18 -3 3 -9 -2 -12 -12z"/>
<path d="M7367 3133 c-4 -3 -7 -27 -7 -51 0 -58 11 -48 13 12 1 25 2 46 1 46
0 0 -4 -3 -7 -7z"/>
<path d="M7535 3130 c-3 -6 1 -7 9 -4 22 8 20 -8 -3 -28 -14 -12 -21 -13 -25
-5 -2 7 -5 4 -5 -5 -1 -10 -5 -18 -11 -18 -18 0 -11 -29 9 -40 14 -7 22 -7 27
2 4 6 3 8 -3 5 -6 -4 -14 0 -17 9 -3 8 -2 12 4 9 6 -3 10 0 10 7 0 9 3 9 10
-2 8 -12 10 -11 10 6 0 11 5 25 11 31 13 13 5 43 -10 43 -5 0 -13 -4 -16 -10z"/>
<path d="M7097 3103 c-12 -12 -7 -22 8 -17 8 4 15 10 15 15 0 11 -14 12 -23 2z"/>
<path d="M7450 3043 c0 -6 7 -13 15 -17 8 -3 15 -13 15 -23 0 -13 -3 -14 -11
-6 -9 9 -17 9 -32 0 -15 -9 -21 -9 -24 1 -6 17 -23 15 -23 -3 0 -8 7 -15 15
-15 9 0 20 -11 25 -25 9 -25 30 -35 30 -14 0 5 5 7 10 4 6 -3 10 0 10 7 0 7 7
25 14 41 10 18 11 27 4 27 -6 0 -20 7 -30 17 -10 9 -18 11 -18 6z"/>
<path d="M7341 3014 c0 -11 3 -14 6 -6 3 7 2 16 -1 19 -3 4 -6 -2 -5 -13z"/>
<path d="M7336 2967 c-9 -33 -7 -37 9 -37 9 0 15 -9 15 -22 0 -19 -2 -20 -10
-8 -8 13 -10 13 -10 -2 0 -12 8 -16 30 -16 29 1 29 2 14 19 -10 11 -14 27 -11
41 5 17 1 27 -12 35 -16 10 -20 9 -25 -10z"/>
<path d="M7431 2894 c0 -11 3 -14 6 -6 3 7 2 16 -1 19 -3 4 -6 -2 -5 -13z"/>
<path d="M7368 2863 c7 -3 16 -2 19 1 4 3 -2 6 -13 5 -11 0 -14 -3 -6 -6z"/>
<path d="M6658 3183 c7 -3 16 -2 19 1 4 3 -2 6 -13 5 -11 0 -14 -3 -6 -6z"/>
<path d="M1354 2919 c-3 -6 2 -18 12 -27 17 -16 17 -16 5 0 -7 9 -10 22 -6 28
3 5 4 10 1 10 -3 0 -8 -5 -12 -11z"/>
<path d="M1436 2638 c3 -5 10 -6 15 -3 13 9 11 12 -6 12 -8 0 -12 -4 -9 -9z"/>
<path d="M1213 2730 c1 -21 10 -18 13 5 1 8 -2 15 -6 15 -5 0 -8 -9 -7 -20z"/>
<path d="M1112 2714 c-12 -8 -20 -19 -17 -24 3 -5 1 -11 -5 -15 -5 -3 -10 -1
-10 5 0 6 -5 8 -10 5 -6 -4 -8 -10 -5 -15 3 -5 0 -10 -7 -13 -7 -2 -5 -3 5 -2
19 3 25 -31 7 -37 -12 -4 12 -59 34 -77 11 -9 16 -9 22 0 4 8 3 9 -4 5 -16
-10 -15 5 2 26 14 19 26 14 26 -12 0 -9 10 -25 23 -36 37 -32 54 -39 31 -13
-11 13 -31 41 -44 61 -17 25 -28 34 -36 27 -13 -11 -44 -2 -44 13 0 5 10 6 23
3 12 -3 17 -3 11 2 -25 19 -22 41 8 63 17 12 42 26 57 30 21 7 22 8 5 9 -11 1
-29 -6 -40 -14 -22 -16 -34 -19 -34 -7 0 5 10 14 23 20 12 6 17 11 12 11 -6 1
-21 -6 -33 -15z"/>
<path d="M1245 2709 c-4 -6 -5 -13 -2 -16 7 -7 27 6 27 18 0 12 -17 12 -25 -2z"/>
<path d="M1143 2671 l-32 -20 32 -33 c41 -43 87 -101 87 -110 0 -15 20 -8 20
6 0 8 6 16 13 19 19 6 16 112 -4 132 -26 26 -80 29 -116 6z"/>
<path d="M1295 2649 c-4 -6 -4 -13 -1 -16 3 -4 6 -1 6 6 0 7 5 9 10 6 6 -3 10
-1 10 4 0 14 -17 14 -25 0z"/>
<path d="M1331 2558 c1 -37 2 -39 9 -18 12 36 12 60 0 60 -5 0 -10 -19 -9 -42z"/>
<path d="M1278 2527 c-5 -10 -8 -29 -8 -42 0 -13 -5 -36 -12 -50 -14 -31 -3
-45 17 -19 18 24 37 77 25 69 -5 -3 -10 9 -12 27 -2 26 -5 29 -10 15z"/>
<path d="M1130 2527 c0 -9 46 -70 93 -121 15 -17 27 -27 27 -23 0 17 -41 87
-50 84 -5 -1 -22 14 -39 33 -17 19 -30 31 -31 27z"/>
<path d="M1286 2354 c-6 -16 -4 -18 39 -69 29 -33 29 -31 -3 38 -23 51 -27 55
-36 31z"/>
<path d="M1340 2312 c6 -13 14 -21 18 -18 3 4 -2 14 -12 24 -18 16 -18 16 -6
-6z"/>
<path d="M1371 2269 c-11 -18 -11 -23 1 -30 7 -5 18 -9 23 -9 6 0 4 4 -4 9 -8
5 -11 16 -6 30 8 27 3 27 -14 0z"/>
<path d="M6613 2193 c15 -2 37 -2 50 0 12 2 0 4 -28 4 -27 0 -38 -2 -22 -4z"/>
<path d="M6698 2193 c6 -2 18 -2 25 0 6 3 1 5 -13 5 -14 0 -19 -2 -12 -5z"/>
<path d="M6528 2183 c6 -2 18 -2 25 0 6 3 1 5 -13 5 -14 0 -19 -2 -12 -5z"/>
</g>
</svg>
