<?xml version="1.0" standalone="no"?>
<!DOCTYPE svg PUBLIC "-//W3C//DTD SVG 20010904//EN"
 "http://www.w3.org/TR/2001/REC-SVG-20010904/DTD/svg10.dtd">
<svg version="1.0" xmlns="http://www.w3.org/2000/svg"
 width="850.000000pt" height="850.000000pt" viewBox="0 0 850.000000 850.000000"
 preserveAspectRatio="xMidYMid meet">
<metadata>
Created by potrace 1.11, written by Peter Selinger 2001-2013
</metadata>
<g transform="translate(0.000000,850.000000) scale(0.100000,-0.100000)"
fill="#000000" stroke="none">
<path d="M3825 8489 c-523 -55 -1011 -196 -1476 -430 -803 -402 -1463 -1055
-1875 -1854 -750 -1456 -600 -3209 386 -4515 277 -366 631 -703 1010 -959 186
-126 284 -183 489 -285 255 -128 493 -220 749 -290 1018 -281 2090 -180 3027
286 281 140 530 299 775 494 174 138 515 480 652 652 521 655 828 1408 920
2257 17 157 17 663 0 820 -96 884 -424 1664 -981 2330 -167 200 -437 459 -656
630 -111 87 -367 258 -490 327 -524 297 -1091 477 -1694 538 -120 12 -718 11
-836 -1z m459 -1471 c-11 -92 -42 -153 -118 -230 -39 -40 -93 -89 -120 -108
-83 -60 -117 -92 -177 -168 -60 -75 -158 -256 -146 -268 4 -4 24 7 45 24 32
28 194 132 203 132 2 0 4 -80 4 -177 0 -98 4 -194 8 -214 l9 -36 -74 -6 c-109
-9 -288 -68 -361 -119 -16 -11 -31 -18 -34 -15 -5 5 41 76 128 196 36 50 50
91 32 91 -5 0 -57 -44 -118 -96 -180 -156 -226 -194 -235 -194 -10 0 -82 84
-175 205 l-70 90 1 75 c2 170 92 319 246 408 64 36 218 79 368 102 150 23 222
44 300 88 101 58 240 184 261 240 14 38 29 25 23 -20z m9 -310 c81 -89 292
-491 350 -668 45 -136 47 -154 56 -377 l7 -188 48 -120 c111 -282 158 -529
160 -850 1 -174 0 -183 -28 -260 -15 -44 -37 -98 -48 -120 -37 -72 -80 -209
-85 -270 -12 -163 94 -442 402 -1050 201 -396 225 -439 341 -611 46 -69 84
-127 84 -129 0 -3 -162 -5 -360 -5 -231 0 -360 4 -360 10 0 5 9 44 21 85 29
108 19 112 -23 9 l-36 -89 -247 -3 c-208 -2 -246 0 -242 12 3 7 8 35 11 62 5
41 4 45 -5 22 -20 -51 -197 -90 -320 -69 -83 13 -156 43 -165 65 -9 23 107
386 134 417 29 35 128 59 243 59 145 0 178 -28 332 -281 37 -62 67 -105 67
-97 0 30 -122 256 -170 315 -66 81 -103 96 -237 94 -115 -2 -210 -25 -249 -62
-13 -12 -35 -52 -49 -88 -43 -115 -114 -348 -121 -400 l-7 -51 -196 0 -196 0
-33 76 c-18 41 -45 119 -58 172 -35 132 -37 328 -6 525 23 143 29 316 13 377
-5 19 -11 51 -14 71 l-5 36 66 12 c37 7 105 24 152 38 47 13 128 38 180 53
200 60 473 172 557 229 29 19 51 37 49 39 -2 2 -27 -8 -56 -23 -155 -78 -543
-220 -753 -274 -318 -82 -479 -62 -721 92 -247 157 -413 352 -445 522 -13 69
6 131 79 253 88 146 93 176 110 567 17 383 63 541 204 692 66 72 94 91 100 71
20 -70 93 -248 110 -267 58 -65 168 -78 286 -35 84 32 156 92 212 178 33 51
38 67 38 117 0 54 -3 60 -50 117 l-51 61 48 32 c26 18 50 37 51 41 2 4 8 6 12
3 5 -3 2 -21 -6 -40 -8 -19 -14 -37 -14 -39 0 -3 23 8 51 25 148 87 331 149
440 149 50 0 59 -3 74 -26 26 -40 28 -22 4 47 -27 79 -38 294 -20 408 19 123
79 251 161 344 44 50 73 49 123 -5z m-1655 -60 c39 -51 96 -124 127 -163 30
-38 63 -81 72 -95 10 -14 47 -63 83 -108 36 -46 85 -109 109 -140 74 -97 303
-384 358 -450 60 -72 67 -109 33 -176 -10 -22 -17 -43 -14 -48 3 -5 2 -7 -3
-6 -4 2 -30 -19 -58 -46 -69 -68 -158 -108 -249 -113 -109 -6 -129 8 -176 130
-33 85 -110 315 -186 557 -13 41 -43 152 -68 245 -25 94 -59 215 -76 270 -81
261 -69 296 48 143z m1938 -79 c168 -82 242 -109 301 -109 60 0 54 -16 -9 -24
-109 -13 -259 -2 -351 26 -33 10 -43 21 -87 100 -28 48 -50 90 -50 93 0 8 50
-14 196 -86z m-2009 -127 c11 -7 33 -80 93 -313 30 -114 99 -341 131 -427 10
-30 19 -55 19 -57 0 -1 -25 -21 -55 -44 l-54 -41 -24 33 c-74 98 -165 279
-192 382 -24 88 -29 194 -16 282 23 151 56 212 98 185z m2320 -151 c131 -26
197 -50 263 -93 57 -38 67 -47 123 -113 36 -42 117 -169 117 -184 0 -4 13 -32
30 -62 16 -30 37 -79 46 -109 25 -86 90 -210 139 -264 25 -28 45 -53 45 -57 0
-13 125 -87 157 -94 30 -6 32 -9 27 -33 -8 -34 -48 -104 -68 -122 -9 -7 -16
-17 -16 -22 0 -14 -51 -55 -93 -74 -42 -19 -42 -19 -50 17 -6 23 -2 27 49 49
53 22 114 83 114 115 0 6 -25 22 -55 34 -91 38 -149 111 -248 314 -47 94 -90
188 -97 207 -7 19 -23 49 -34 65 -12 17 -28 43 -36 59 -8 16 -35 45 -60 65
-25 20 -54 45 -65 56 -58 60 -136 105 -246 143 -63 22 -144 46 -178 53 -51 10
-64 16 -72 36 -5 13 -9 26 -9 29 0 11 129 2 217 -15z m684 -1098 c17 -43 38
-228 39 -336 0 -121 -18 -214 -69 -343 -47 -122 -75 -243 -67 -289 16 -84 108
-124 162 -70 32 32 34 31 34 -5 0 -37 -39 -60 -105 -60 -57 0 -99 23 -128 70
-19 30 -22 50 -22 130 0 88 3 102 39 185 21 50 52 140 68 200 28 99 31 125 31
255 1 80 -3 178 -7 218 -8 76 4 98 25 45z m-141 -1219 c5 -21 10 -80 10 -131
0 -122 15 -184 58 -233 l34 -40 -30 0 c-24 0 -35 8 -52 35 -26 42 -36 46 -17
8 18 -36 47 -121 91 -260 39 -125 52 -155 103 -230 52 -77 127 -132 201 -148
17 -3 32 -10 32 -14 0 -17 -70 -104 -101 -125 -40 -27 -59 -34 -134 -46 -84
-14 -152 2 -186 43 -32 38 -22 47 20 16 27 -19 38 -21 103 -16 40 3 92 12 115
20 39 13 101 55 102 68 1 4 -20 12 -46 19 -135 37 -240 188 -288 413 -38 174
-75 295 -105 338 -38 53 -18 54 35 2 22 -21 36 -30 33 -21 -16 41 -28 143 -30
260 l-3 128 23 -24 c13 -12 27 -40 32 -62z m-37 -1097 c34 -57 45 -111 50
-230 l3 -98 -35 6 c-51 10 -105 40 -125 70 -21 31 -14 45 11 23 18 -16 97 -58
109 -58 15 0 -3 197 -24 255 -33 89 -29 100 11 32z m942 -40 c-4 -13 -16 -51
-28 -85 -18 -49 -31 -67 -67 -93 -59 -42 -74 -57 -30 -32 224 132 269 148 430
148 145 0 167 -8 298 -104 106 -80 134 -92 200 -92 42 0 52 -3 40 -10 -39 -22
-114 -22 -174 -1 -86 29 -164 52 -164 47 0 -3 27 -18 61 -35 71 -37 203 -159
256 -238 66 -101 126 -292 91 -292 -9 0 -18 22 -26 68 -16 97 -25 113 -159
286 -88 112 -277 225 -393 232 l-65 5 40 -22 c48 -26 146 -125 168 -168 19
-37 17 -38 -36 -7 -52 30 -198 89 -204 82 -3 -3 17 -30 45 -61 43 -49 69 -105
55 -119 -2 -2 -30 2 -61 10 -68 16 -242 18 -331 4 -110 -18 -228 -66 -278
-113 -13 -11 -25 -18 -28 -16 -8 9 -8 62 0 112 9 55 -1 60 -32 14 -52 -77 -77
-149 -78 -224 l0 -73 -46 0 -47 0 -7 68 c-13 135 44 297 138 390 29 28 102 81
162 117 123 75 199 136 236 189 28 41 42 47 34 13z m-3497 -106 c29 -15 51
-38 78 -83 21 -35 50 -79 64 -98 15 -19 44 -60 65 -90 48 -69 126 -160 137
-160 8 0 -19 57 -44 92 -10 13 -5 25 29 70 22 29 48 69 59 88 l19 35 6 -90 c4
-49 10 -103 14 -120 21 -84 71 -224 92 -255 12 -19 23 -38 23 -42 0 -5 -103
-8 -229 -8 l-229 0 -17 28 c-28 43 -92 102 -110 102 -12 0 -16 5 -12 18 4 9
18 50 32 91 36 105 31 108 -16 9 -46 -96 -49 -98 -149 -98 -108 0 -221 40
-314 112 -23 18 -43 33 -44 34 -5 4 103 196 155 275 50 77 60 86 110 105 56
21 228 12 281 -15z m-491 -434 c58 -42 129 -78 190 -94 l32 -8 -16 -32 c-18
-39 -29 -40 -113 -12 -106 35 -170 85 -170 135 0 23 9 54 16 54 2 0 30 -19 61
-43z m-32 -119 c34 -22 45 -38 26 -38 -26 0 -128 -112 -155 -169 -17 -33 -34
-61 -38 -61 -5 0 -30 20 -56 44 l-47 44 17 35 c25 53 76 105 132 138 61 35 76
36 121 7z m415 13 c0 -11 -58 -61 -71 -61 -6 0 2 16 17 35 25 33 54 47 54 26z
m95 -46 c53 -43 79 -95 72 -143 -9 -49 -31 -70 -122 -113 -116 -54 -159 -66
-278 -80 -189 -21 -349 13 -424 91 -30 30 -43 60 -27 60 3 0 25 -16 50 -36 65
-54 143 -74 282 -74 140 0 231 14 297 48 28 13 51 26 53 27 13 11 -24 88 -58
121 -22 21 -40 42 -40 46 0 3 18 9 40 13 30 5 48 16 68 41 15 19 31 34 36 34
5 0 28 -16 51 -35z m-417 -19 c15 -7 54 -19 87 -25 108 -21 135 -33 170 -75
18 -23 35 -53 38 -67 6 -22 2 -27 -31 -41 -80 -35 -128 -42 -282 -42 -114 0
-163 4 -187 14 l-33 15 24 51 c27 59 85 126 136 160 42 27 44 28 78 10z m1457
-5 c3 -5 36 -20 73 -32 50 -18 90 -24 160 -24 50 0 92 -3 92 -7 0 -4 -4 -18
-9 -31 -13 -33 -48 -38 -168 -22 -104 13 -151 33 -173 75 -16 30 7 68 25 41z
m433 -48 c-14 -32 -38 -62 -38 -47 0 26 23 74 36 74 11 0 11 -5 2 -27z m-458
-50 c0 -1 -11 -14 -25 -28 -24 -23 -33 -25 -115 -25 -51 0 -90 4 -90 10 0 14
39 33 85 41 37 6 145 8 145 2z m1215 -34 c16 -6 17 -8 3 -8 -9 -1 -19 -9 -23
-20 -4 -14 -19 -20 -59 -25 -30 -3 -60 -4 -68 -1 -7 2 -143 7 -303 9 -294 6
-375 12 -375 27 0 5 1 9 3 9 1 0 20 6 41 14 31 11 112 12 400 8 199 -2 370 -8
381 -13z m-1138 0 c91 -22 91 -30 -1 -25 -92 5 -110 11 -86 26 19 12 30 12 87
-1z m1333 -29 c-33 -31 -71 -37 -157 -24 -95 14 -17 53 106 54 l83 0 -32 -30z
m230 25 c0 -2 -11 -16 -25 -30 -24 -23 -33 -25 -116 -25 -104 0 -115 14 -33
42 43 15 174 25 174 13z m-1270 -14 c0 -11 -35 -21 -74 -21 -51 0 -12 17 67
29 4 0 7 -3 7 -8z m1493 -10 c4 -16 -6 -23 -53 -40 -68 -25 -86 -26 -106 -6
-9 8 -31 15 -50 15 -19 0 -34 4 -34 9 0 20 77 40 156 40 72 1 82 -1 87 -18z
m-1814 -16 c2 -3 -5 -8 -15 -11 -10 -4 -26 -13 -35 -21 -17 -14 -26 -14 -209
-9 -167 4 -180 5 -180 15 0 5 19 16 43 25 34 12 74 14 217 10 96 -3 177 -7
179 -9z m1901 6 c0 -4 -24 -18 -52 -29 -45 -18 -312 -133 -373 -161 -125 -58
-176 -81 -209 -95 -35 -15 -89 -15 -570 -6 -902 17 -1640 39 -1630 49 18 19
110 28 180 18 58 -9 82 -8 110 2 28 10 38 11 44 1 5 -8 36 -11 103 -9 52 2 99
1 103 -3 11 -11 156 -9 174 2 8 5 19 5 25 1 16 -14 114 -19 158 -9 26 6 44 5
51 -2 13 -13 152 -13 178 1 13 7 23 7 27 2 9 -15 113 -24 149 -14 20 6 55 5
97 -2 48 -8 76 -8 108 0 26 7 46 8 52 2 12 -12 155 -12 175 1 9 5 19 5 26 -1
21 -17 140 -23 175 -8 25 10 34 10 37 1 2 -8 30 -12 80 -12 61 0 90 5 140 26
34 15 62 31 62 36 0 4 12 8 26 8 14 0 54 13 88 28 33 15 94 39 133 52 40 12
80 31 89 41 9 10 22 15 29 13 16 -7 145 51 145 65 0 6 16 11 35 11 19 0 35 -4
35 -9z m-1730 -33 c-23 -20 -41 -28 -69 -28 -55 0 -131 12 -131 20 0 17 93 36
178 36 l53 1 -31 -29z m225 7 c-11 -8 -25 -19 -32 -25 -21 -17 -193 -18 -193
-1 0 19 87 39 165 40 72 0 78 -1 60 -14z m215 3 c0 -4 -9 -9 -19 -13 -11 -3
-21 -12 -24 -19 -6 -15 -91 -19 -152 -8 -40 8 -40 8 -16 21 39 21 211 37 211
19z m1310 -12 c0 -19 -13 -29 -80 -60 -43 -20 -82 -36 -85 -36 -3 0 -49 -20
-103 -44 -354 -161 -417 -186 -421 -169 -5 24 11 33 218 124 102 45 249 110
326 145 77 35 141 63 143 64 1 0 2 -11 2 -24z m-1115 4 c-3 -5 -11 -10 -17
-10 -6 0 -16 -6 -22 -14 -11 -15 -54 -20 -134 -17 -52 1 -53 20 -1 38 42 15
183 17 174 3z m205 0 c0 -5 -4 -10 -9 -10 -5 0 -17 -8 -27 -17 -14 -14 -33
-18 -96 -17 -105 2 -116 13 -41 39 44 16 173 20 173 5z m182 -25 c-33 -27 -93
-34 -167 -17 l-40 9 35 16 c23 11 64 16 118 17 l84 0 -30 -25z m456 16 c1 -1
2 -8 2 -17 0 -9 -22 -25 -55 -40 -64 -28 -105 -31 -105 -9 0 18 13 16 -149 21
-162 4 -175 10 -94 40 29 11 79 13 218 10 99 -3 181 -5 183 -5z m-2028 -21 c0
-5 -9 -11 -19 -15 -11 -3 -23 -15 -26 -26 -5 -14 -16 -19 -48 -20 -23 -1 -46
0 -52 1 -5 1 -27 5 -48 7 -48 7 -43 23 13 44 46 17 180 24 180 9z m196 -15
c-11 -8 -23 -15 -28 -15 -4 0 -8 -6 -8 -14 0 -20 -45 -28 -117 -20 -124 13
-56 62 87 63 77 0 83 -1 66 -14z m197 -7 c-12 -6 -23 -19 -26 -29 -4 -15 -15
-19 -49 -21 -23 0 -50 -1 -58 0 -8 1 -28 3 -44 5 -42 4 -44 25 -4 42 40 17
217 21 181 3z m213 -3 c-11 -8 -23 -15 -28 -15 -4 0 -8 -6 -8 -14 0 -8 -15
-16 -37 -19 -46 -8 -153 3 -153 15 0 23 86 48 165 47 72 0 78 -1 61 -14z m188
-22 c-17 -16 -46 -29 -71 -33 -41 -7 -133 8 -133 21 0 18 81 38 154 38 l79 1
-29 -27z m197 -2 c-23 -21 -43 -30 -74 -32 -79 -5 -117 0 -117 15 0 22 77 44
154 45 l68 1 -31 -29z m218 20 l24 -6 -27 -12 c-14 -7 -26 -17 -26 -22 0 -15
-66 -22 -130 -15 -58 6 -60 7 -44 25 27 30 142 47 203 30z m231 -6 c0 -3 -11
-10 -25 -15 -14 -5 -25 -16 -25 -24 0 -19 -71 -26 -137 -12 -29 5 -53 13 -53
17 0 18 81 38 158 38 45 1 82 -1 82 -4z m308 -4 c104 -1 112 -2 112 -20 0 -14
-11 -23 -37 -32 -21 -6 -42 -15 -48 -19 -24 -17 -65 -20 -71 -5 -5 12 -27 15
-113 16 -58 0 -126 4 -151 7 l-45 7 27 18 c32 22 105 35 168 31 25 -1 96 -3
158 -3z m-1921 -34 c2 -3 -5 -8 -16 -12 -11 -3 -23 -14 -26 -24 -8 -28 -49
-41 -125 -41 -56 0 -70 3 -70 15 0 20 35 53 62 59 59 13 163 15 175 3z m208
-7 c-3 -5 -13 -10 -21 -10 -8 0 -20 -11 -26 -25 -15 -34 -74 -49 -145 -38 -52
8 -52 8 -40 33 7 14 28 30 47 37 43 15 194 17 185 3z m195 -9 c0 -5 -9 -12
-19 -16 -10 -3 -21 -14 -24 -24 -6 -23 -72 -39 -139 -33 -38 3 -48 8 -48 22 0
37 57 58 158 59 39 1 72 -3 72 -8z m215 -1 c3 -5 -1 -10 -9 -10 -9 0 -25 -13
-37 -29 -25 -35 -68 -45 -144 -36 -46 6 -52 10 -48 26 6 20 29 36 72 50 38 11
159 11 166 -1z m170 -36 c-20 -20 -49 -39 -65 -44 -38 -11 -140 -1 -140 14 1
41 59 65 158 66 l83 0 -36 -36z m225 27 c0 -5 -7 -11 -15 -15 -8 -3 -19 -16
-25 -30 -11 -29 -67 -42 -136 -31 -66 10 -57 47 17 70 50 15 159 20 159 6z
m189 -2 l26 0 -22 -16 c-13 -8 -23 -21 -23 -28 0 -20 -56 -35 -126 -35 -61 0
-64 1 -64 24 0 20 8 27 43 40 60 22 78 25 111 20 16 -2 40 -4 55 -5z m231 -7
c0 -5 -11 -14 -25 -20 -14 -6 -25 -16 -25 -22 0 -23 -69 -41 -131 -34 -32 4
-59 9 -59 11 0 17 27 47 53 58 35 15 187 20 187 7z m180 -2 l35 -1 -27 -15
c-16 -8 -28 -21 -28 -28 0 -22 -47 -36 -120 -36 -63 0 -70 2 -70 20 0 11 11
27 24 36 24 15 107 33 136 28 8 -1 31 -3 50 -4z m243 -14 c7 -19 -5 -28 -75
-55 -46 -19 -67 -21 -112 -16 -46 6 -56 11 -56 27 0 32 72 58 161 58 58 0 78
-4 82 -14z m-1498 -101 c314 -8 698 -17 855 -20 157 -3 345 -8 418 -11 l132
-6 0 -25 c0 -25 -1 -26 -54 -19 -138 16 -1555 46 -2168 46 -40 0 -48 3 -48 18
0 10 3 22 7 25 10 10 226 8 858 -8z"/>
<path d="M4296 6285 c32 -74 71 -190 90 -270 12 -54 20 -185 10 -185 -2 0 -23
11 -47 24 -24 13 -60 27 -79 30 -33 7 -34 6 -16 -9 11 -8 23 -15 28 -15 4 0
32 -16 62 -35 53 -33 55 -37 58 -82 l3 -48 14 45 c9 31 12 80 9 160 -5 100
-10 127 -40 211 -38 100 -76 180 -102 214 -9 11 -4 -7 10 -40z"/>
<path d="M3756 4815 c-113 -53 -166 -73 -183 -69 -20 6 -23 3 -23 -25 0 -19 5
-31 14 -31 9 0 15 -22 19 -77 3 -43 11 -95 17 -115 17 -59 70 -120 122 -142
42 -17 51 -18 93 -6 94 26 144 98 145 206 0 65 -32 241 -50 275 -9 15 -7 21 5
25 15 6 22 34 8 34 -5 0 -80 -34 -167 -75z m-78 -127 c19 -19 14 -73 -9 -94
-28 -25 -53 -8 -57 38 -5 52 36 86 66 56z"/>
<path d="M2622 4873 c-8 -3 -10 -9 -4 -16 6 -8 6 -39 0 -82 -16 -118 -7 -242
22 -300 45 -89 114 -107 182 -46 32 29 32 30 36 137 3 74 9 114 18 125 14 16
11 56 -6 73 -7 7 -10 5 -10 -7 0 -27 -15 -21 -113 46 -113 77 -109 75 -125 70z
m72 -155 c22 -31 20 -61 -5 -84 -21 -19 -21 -18 -40 5 -23 28 -24 64 -3 85 21
21 30 20 48 -6z"/>
<path d="M2680 4085 c0 -15 26 -32 36 -23 2 3 2 13 -2 22 -8 20 -34 21 -34 1z"/>
<path d="M2885 4087 c-10 -8 -15 -19 -11 -25 9 -15 56 6 56 25 0 17 -21 17
-45 0z"/>
<path d="M3098 3673 c-10 -2 -18 -11 -18 -18 0 -19 21 -30 29 -16 9 14 62 -2
103 -31 32 -22 52 -23 44 -2 -3 9 -6 17 -6 20 0 2 -17 12 -37 23 -43 21 -90
31 -115 24z"/>
</g>
</svg>
