<?xml version="1.0" standalone="no"?>
<!DOCTYPE svg PUBLIC "-//W3C//DTD SVG 20010904//EN"
 "http://www.w3.org/TR/2001/REC-SVG-20010904/DTD/svg10.dtd">
<svg version="1.0" xmlns="http://www.w3.org/2000/svg"
 width="850.000000pt" height="850.000000pt" viewBox="0 0 850.000000 850.000000"
 preserveAspectRatio="xMidYMid meet">
<metadata>
Created by potrace 1.11, written by Peter Selinger 2001-2013
</metadata>
<g transform="translate(0.000000,850.000000) scale(0.100000,-0.100000)"
fill="#000000" stroke="none">
<path d="M4652 6500 c-78 -11 -131 -27 -156 -49 -27 -23 -49 -77 -142 -346
-81 -236 -170 -487 -494 -1395 -181 -506 -232 -649 -260 -730 -58 -168 -412
-1160 -424 -1185 -7 -16 -66 -181 -131 -365 -64 -184 -137 -391 -161 -460 -47
-134 -53 -173 -29 -207 32 -46 94 -58 300 -58 211 0 269 10 313 55 28 28 20 5
857 2360 190 536 366 1027 389 1090 24 63 72 196 106 295 35 99 84 239 111
310 197 539 209 586 166 629 -14 14 -49 32 -78 40 -66 18 -281 28 -367 16z"/>
<path d="M5496 5377 c-26 -39 -34 -119 -31 -302 4 -186 16 -246 58 -278 13
-10 73 -41 133 -68 60 -28 141 -66 180 -84 39 -19 322 -151 630 -293 307 -143
576 -268 597 -278 l38 -18 -103 -49 c-139 -66 -833 -391 -1088 -510 -391 -181
-399 -185 -417 -220 -11 -22 -19 -76 -25 -170 -11 -167 2 -309 31 -347 42 -56
22 -65 1106 473 550 273 1020 507 1044 520 62 33 80 71 91 198 11 132 -1 281
-29 343 l-20 47 -1056 525 c-581 289 -1071 528 -1089 531 -28 4 -37 1 -50 -20z"/>
<path d="M1465 4912 c-528 -263 -1000 -498 -1050 -522 -63 -32 -95 -54 -107
-75 -27 -48 -41 -167 -36 -312 5 -113 9 -139 29 -180 l24 -48 1055 -527 c674
-336 1066 -527 1086 -527 18 -1 38 7 48 18 49 54 48 439 -2 540 -23 47 -52 62
-712 367 -828 382 -880 406 -880 414 0 4 102 55 228 113 125 58 376 175 557
260 182 85 425 198 540 252 116 53 223 106 239 118 49 34 59 75 64 257 6 236
-20 330 -92 330 -21 0 -343 -155 -991 -478z"/>
</g>
</svg>
